<?xml version="1.0" encoding="UTF-8"?><svg xmlns="http://www.w3.org/2000/svg" viewBox="0 0 803.47 814.55"><defs><style>.d{fill:#231f20;}</style></defs><g id="a"/><g id="b"><g id="c"><g><path class="d" d="M395.75,2.16c102.67,24.77,189.15,101.18,225.8,199.58,19.47,51.03,25.71,107.25,17.78,161.13-.58,5.03-2.08,12.59-3.02,17.63-.42,2.51-1.27,6.2-1.89,8.71-16.43,81.09-82.65,145.89-165.2,155.43-18.08,2.14-36.24,1.36-54.04-2.01-18.63-3.38-36.75-10.77-51.35-22.94-30.16-24.22-44.61-65.39-36.57-102.94,.78-4.07,2.02-8.16,3.34-12.16l.46-1.09,1.86-4.35c7.32-15.3,20.96-27.69,37.19-32.78,5.62-1.87,11.88-2.88,17.8-2.86,2.97-.08,6,.24,8.92,.62,1.67,.36,5.06,.9,6.6,1.43,14.1,3.86,24.18,17.04,24.68,31.42-.02,.79-.01,2.54-.04,3.33l-.24,2.2c-.35,2.92-1.08,5.99-2.39,8.63-2.76,5.51-7.98,9.56-13.79,10.69-5.64,1.25-12.79-.32-15.28-5.96-2.62-5.06-.25-13.17,6.48-11.77-1.32-.18-2.66,.15-3.72,.85-3.32,2.14-2.98,7.09-1.11,10.03,1.28,2.05,3.38,3.44,5.62,3.81,8.26,1.5,16.63-5.02,17.42-13.17,.08-.71,.19-2.01,.24-2.68-.03-.51,0-2.13-.03-2.67l-.19-1.76c-.66-5.69-3.38-11.31-7.4-15.19-3.74-3.79-8.59-6.01-13.68-6.72-3.64-.35-7.74-.55-11.36,.02-9.01,1.06-17.81,5.11-24.49,11.21-.99,.75-1.59,1.5-2.41,2.34-1.54,1.43-2.99,3.48-4.29,5.09l-1.79,2.79-.45,.69c-.61,1.1-1.29,2.56-1.89,3.65-.64,1.5-1.24,3.03-1.81,4.55l-.9,3.12-.23,.77c-.57,2.99-1.11,6.11-1.34,9.21-3.65,37.42,21.29,74.87,58.33,81.92,35.73,6.56,74.22-2.87,103.15-24.39,30.25-22.03,50.44-56.46,54.74-93.24,.27-2.29,.94-8.28,1.21-10.5,.36-5.4,.96-12.09,.96-17.5,.08-3.99,.19-9.98-.06-13.94-1.12-38.84-11.61-77.01-30.57-110.72-33.43-60.53-95.52-103.94-164.22-111.76-32.97-4.05-56.41-34.07-52.36-67.04,4.13-36.08,40.6-60.46,75.52-50.71h0Z"/><path class="d" d="M407.65,812.39c-102.67-24.77-189.15-101.18-225.8-199.58-19.47-51.03-25.71-107.25-17.78-161.13,.58-5.03,2.08-12.59,3.02-17.63,.42-2.51,1.27-6.2,1.89-8.71,16.43-81.09,82.65-145.89,165.2-155.43,18.08-2.14,36.24-1.36,54.04,2.01,18.63,3.38,36.75,10.77,51.35,22.94,30.16,24.22,44.61,65.39,36.57,102.94-.78,4.07-2.02,8.16-3.34,12.16l-.46,1.09-1.86,4.35c-7.32,15.3-20.96,27.69-37.19,32.78-5.62,1.87-11.88,2.88-17.8,2.86-2.97,.08-6-.24-8.92-.62-1.67-.36-5.06-.9-6.6-1.43-14.1-3.86-24.18-17.04-24.68-31.42,.02-.79,.01-2.54,.04-3.33l.24-2.2c.35-2.92,1.08-5.99,2.39-8.63,2.76-5.51,7.98-9.56,13.79-10.69,5.64-1.25,12.79,.32,15.28,5.96,2.62,5.06,.25,13.17-6.48,11.77,1.32,.18,2.66-.15,3.72-.85,3.32-2.14,2.98-7.09,1.11-10.03-1.28-2.05-3.38-3.44-5.62-3.81-8.26-1.5-16.63,5.02-17.42,13.17-.08,.71-.19,2.01-.24,2.68,.03,.51,0,2.13,.03,2.67l.19,1.76c.66,5.69,3.38,11.31,7.4,15.19,3.74,3.79,8.59,6.01,13.68,6.72,3.64,.35,7.74,.55,11.36-.02,9.01-1.06,17.81-5.11,24.49-11.21,.99-.75,1.59-1.5,2.41-2.34,1.54-1.43,2.99-3.48,4.29-5.09l1.79-2.79,.45-.69c.61-1.1,1.29-2.56,1.89-3.65,.64-1.5,1.24-3.03,1.81-4.55l.9-3.12,.23-.77c.57-2.99,1.11-6.11,1.34-9.21,3.65-37.42-21.29-74.87-58.33-81.92-35.73-6.56-74.22,2.87-103.15,24.39-30.25,22.03-50.44,56.46-54.74,93.24-.27,2.29-.94,8.28-1.21,10.5-.36,5.4-.96,12.09-.96,17.5-.08,3.99-.19,9.98,.06,13.94,1.12,38.84,11.61,77.01,30.57,110.72,33.43,60.53,95.52,103.94,164.22,111.76,32.97,4.05,56.41,34.07,52.36,67.04-4.13,36.08-40.6,60.46-75.52,50.71h0Z"/><path class="d" d="M2.35,419.83C45.63,251.44,211.7,136.06,384.69,170.9c97.09,17.2,164.31,105.21,153.51,203.06-3.02,25.2-9.53,48.46-25.56,68.62-23.39,30.41-63.84,47.31-101.71,40.18-18.31-2.92-34.18-12.61-43.87-28.55-6.71-10.95-9.81-24.24-8.48-37.02,.17-2.53,.89-6.23,1.48-8.74,.11-.57,.39-1.63,.59-2.21,1.98-6.72,5.92-12.84,11.27-17.33,8.54-7.38,20.92-10.28,31.72-6.79,9.53,3.08,15.17,14.11,12.14,23.59-.88,2.9-2.93,5.35-5.51,6.7-5.11,2.89-13.16,.69-11.64-6.25-.42,2.57,1.15,5.31,3.65,5.99,5.6,1.42,11.07-3.35,10.99-8.93,.52-6.99-4.31-14.09-11.25-15.47-6.31-1.18-13.02,.21-18.43,3.61-6.14,3.89-10.63,10.43-11.77,17.62-.29,1.36-.41,3.88-.56,5.23-.09,1.73,.01,3.57,0,5.3,.1,.84,.29,2.64,.38,3.49,1.65,12.84,9.14,24.94,20.23,31.71,6.63,4.08,14.14,5.89,21.81,6.2,28.89,1.83,56.83-13.41,71.41-37.79,5.07-8.37,8.51-17.63,10.09-27.24,.85-4.91,1.48-12.3,1.74-17.3,1.29-29.61-7.2-60.16-23.98-84.19-20.95-30.71-54.98-51.07-91.6-54.16l-6.96-.71c-.86-.11-2.61-.24-3.48-.26-2.22-.14-8.14-.37-10.43-.52-2.28,0-8.21,.04-10.42,.03-48.93,.95-97.19,17.67-136.21,46.88-23.04,16.98-43.15,38.7-58.65,62.55-18.83,29.47-30.81,62.46-35.36,96.2-4.44,32.92-34.73,56.01-67.65,51.57-36.03-4.55-59.98-41.31-49.81-76.11h0Z"/><path class="d" d="M801.12,394.7c-43.28,168.39-209.35,283.78-382.34,248.93-97.09-17.2-164.31-105.21-153.51-203.06,3.02-25.2,9.53-48.46,25.56-68.62,23.39-30.41,63.84-47.31,101.71-40.18,18.31,2.92,34.18,12.61,43.87,28.55,6.71,10.95,9.81,24.24,8.48,37.02-.17,2.53-.89,6.23-1.48,8.74-.11,.57-.39,1.63-.59,2.21-1.98,6.72-5.92,12.84-11.27,17.33-8.54,7.38-20.92,10.28-31.72,6.79-9.53-3.08-15.17-14.11-12.14-23.59,.88-2.9,2.93-5.35,5.51-6.7,5.11-2.89,13.16-.69,11.64,6.25,.42-2.57-1.15-5.31-3.65-5.99-5.6-1.42-11.07,3.35-10.99,8.93-.52,6.99,4.31,14.09,11.25,15.47,6.31,1.18,13.02-.21,18.43-3.61,6.14-3.89,10.63-10.43,11.77-17.62,.29-1.36,.41-3.88,.56-5.23,.09-1.73-.01-3.57,0-5.3-.1-.84-.29-2.64-.38-3.49-1.65-12.84-9.14-24.94-20.23-31.71-6.63-4.08-14.14-5.89-21.81-6.2-28.89-1.83-56.83,13.41-71.41,37.79-5.07,8.37-8.51,17.63-10.09,27.24-.85,4.91-1.48,12.3-1.74,17.3-1.29,29.61,7.2,60.16,23.98,84.19,20.95,30.71,54.98,51.07,91.6,54.16l6.96,.71c.86,.11,2.61,.24,3.48,.26,2.22,.14,8.14,.37,10.43,.52,2.28,0,8.21-.04,10.42-.03,48.93-.95,97.19-17.67,136.21-46.88,23.04-16.98,43.15-38.7,58.65-62.55,18.83-29.47,30.81-62.46,35.36-96.2,4.44-32.92,34.73-56.01,67.65-51.57,36.03,4.55,59.98,41.31,49.81,76.11h0Z"/></g></g></g></svg>