<svg width="302" height="306" viewBox="0 0 302 306" fill="none" xmlns="http://www.w3.org/2000/svg">
<path fill-rule="evenodd" clip-rule="evenodd" d="M84.9381 1.489C83.7691 2.307 74.9671 12.095 65.3781 23.239C55.7901 34.382 39.3461 53.488 28.8371 65.695C14.6561 82.166 9.58711 88.742 9.17811 91.195C8.87511 93.013 7.5161 108.9 6.1581 126.5C4.8001 144.1 2.7371 170.561 1.5721 185.301C-0.449897 210.896 -0.465894 212.224 1.20511 214.801C2.16811 216.286 6.6181 222.45 11.0951 228.5C63.8671 299.82 67.8601 305.023 70.2981 305.635C73.9751 306.557 134.388 289.675 137.095 286.968C139.103 284.96 139.12 283.943 139.379 152.066C139.543 68.34 139.282 18.247 138.673 16.646C138.142 15.248 136.675 13.431 135.413 12.608C133.098 11.098 92.0871 0 88.8221 0C87.8541 0 86.1071 0.669998 84.9381 1.489ZM188.18 5.949C170.979 10.495 165.85 12.23 164.43 13.984C162.701 16.119 162.618 22.363 162.618 150.422C162.618 282.471 162.65 284.657 164.584 286.733C165.666 287.894 167.353 289.084 168.334 289.378C172.167 290.525 205.77 299.886 217.454 303.061C228.832 306.153 229.998 306.298 232.454 304.921C233.919 304.1 250.08 283.208 268.368 258.494C301.212 214.108 301.618 213.501 301.618 208.743C301.618 206.094 299.564 178.181 297.054 146.713C293.858 106.657 292.079 88.866 291.12 87.386C288.132 82.774 218.275 2.421 216.266 1.285C213.069 -0.522 211.975 -0.340999 188.18 5.949ZM104.54 18.463C110.273 19.865 115.066 21.122 115.192 21.256C115.531 21.617 52.1731 61.815 51.7971 61.478C51.6201 61.32 60.3951 50.841 71.2971 38.192C83.7771 23.71 91.6741 15.326 92.6181 15.553C93.4431 15.752 98.8081 17.061 104.54 18.463ZM227.149 34.656C236.482 45.467 245.693 56.136 247.618 58.365C249.543 60.594 250.443 62.031 249.618 61.557C241.786 57.065 186.704 21.58 187.041 21.244C187.383 20.902 207.192 15.51 209.649 15.091C209.942 15.041 217.817 23.845 227.149 34.656ZM124.383 116.272L124.118 144.686L78.9371 118.079C54.0881 103.445 33.5461 91.253 33.2891 90.986C33.0331 90.719 53.3641 77.414 78.4701 61.42L124.118 32.34L124.383 60.099C124.529 75.366 124.529 100.644 124.383 116.272ZM224.118 62.001C247.768 77.034 267.5 89.663 267.968 90.066C268.435 90.469 260.11 95.958 249.468 102.262C233.506 111.719 180.022 143.195 177.368 144.694C176.956 144.927 176.618 119.615 176.618 88.444V31.77L178.868 33.219C180.106 34.016 200.468 46.968 224.118 62.001ZM72.3681 129.999C96.1561 143.969 115.618 155.681 115.618 156.026C115.618 156.833 15.5301 199.245 14.9631 198.679C14.5101 198.226 21.2741 109.8 22.1921 104.185L22.7331 100.87L25.9251 102.735C27.6811 103.761 48.5801 116.03 72.3681 129.999ZM279.881 107.25C282.396 135.699 286.927 198.024 286.511 198.44C285.932 199.02 185.604 156.818 185.642 156.01C185.667 155.485 277.637 101.204 278.723 101.073C279.056 101.033 279.577 103.813 279.881 107.25ZM124.618 216.559C124.618 243.266 124.28 264.943 123.868 264.729C117.202 261.267 27.6261 209.422 27.6471 209.037C27.6751 208.536 122.225 168.306 123.868 168.096C124.28 168.043 124.618 189.852 124.618 216.559ZM222.92 187.136C247.779 197.661 269.633 206.914 271.485 207.698L274.851 209.124L263.985 215.381C205.805 248.878 177.589 265 177.146 265C176.856 265 176.618 243.175 176.618 216.5C176.618 189.825 176.866 168 177.17 168C177.473 168 198.061 176.611 222.92 187.136ZM103.921 269.238C112.613 274.182 119.588 278.355 119.421 278.511C118.388 279.48 76.3901 290.126 75.2811 289.701C74.2491 289.305 36.1111 238.977 27.7631 226.995C27.0171 225.926 40.2921 232.97 57.2631 242.649C74.2331 252.329 95.2291 264.294 103.921 269.238ZM273.448 227.75C272.634 228.712 261.754 243.269 249.272 260.098L226.575 290.696L214.347 287.373C207.621 285.546 197.703 282.852 192.306 281.387C186.092 279.7 182.844 278.374 183.447 277.771C184.776 276.442 272.911 226.118 274.023 226.053C274.521 226.024 274.262 226.788 273.448 227.75Z" fill="black"/>
</svg>
