<svg width="77" height="76" viewBox="0 0 77 76" fill="none" xmlns="http://www.w3.org/2000/svg">
<path fill-rule="evenodd" clip-rule="evenodd" d="M36.486 0.0486177C31.4916 0.249397 26.9032 1.31763 22.5174 3.30066C13.2099 7.50902 5.312 16.0047 2.05523 25.3116C0.580656 29.5256 0 33.1107 0 38.0022C0 42.8938 0.580656 46.4789 2.05523 50.6929C4.644 58.0909 10.2034 65.0816 17.2433 69.7911C22.9402 73.6022 29.3083 75.6436 36.4695 75.954C43.5871 76.2625 49.8753 75.0201 55.6047 72.1734C61.8441 69.073 67.6008 63.8746 71.4024 57.9076C73.1151 55.2194 74.698 51.6932 75.5798 48.602C76.5764 45.108 77 41.9464 77 38.0022C77 31.6323 75.759 26.3198 73.0264 20.9933C71.8925 18.7831 71.0471 17.4485 69.4737 15.3853C62.8701 6.72549 53.2669 1.23283 42.9836 0.233867C40.5339 -0.0041349 38.934 -0.0497384 36.486 0.0486177ZM27.1145 23.5767C30.9797 24.528 34.214 27.7101 35.6674 31.9917C36.254 33.7196 36.7359 36.5952 36.7359 38.3672V39.1115H25.9713H15.2069L15.2836 40.4981C15.3259 41.2608 15.4516 42.2155 15.563 42.6198C16.377 45.5731 18.4499 47.6028 21.4989 48.4322C22.628 48.7393 25.484 48.7467 26.6147 48.4455C29.0192 47.8048 31.0769 45.9393 31.4382 44.0725L31.5158 43.6719H33.8759C35.174 43.6719 36.2361 43.7137 36.2361 43.7647C36.2361 43.8157 36.1308 44.2179 36.0019 44.6583C35.4015 46.7121 34.5187 48.2011 33.1435 49.4795C30.5427 51.8973 27.3524 52.9371 23.116 52.7478C19.4218 52.5826 16.7569 51.5309 14.4849 49.3415C12.4401 47.3711 11.3044 45.1254 10.5893 41.6382C10.2179 39.8277 10.1858 35.9124 10.5294 34.3426C11.6921 29.0304 15.014 25.2215 19.7443 23.7768C21.2671 23.3117 22.0654 23.2206 24.1781 23.2708C25.5478 23.3033 26.3385 23.3856 27.1145 23.5767ZM48.4711 28.3275C50.4241 31.1404 52.0643 33.4419 52.116 33.4419C52.1676 33.4419 53.8531 31.163 55.8613 28.3779C57.8697 25.5927 59.5763 23.2899 59.654 23.2605C59.7316 23.2311 61.0745 23.222 62.6382 23.2403L65.4811 23.2735L60.355 30.0455C57.5357 33.7702 55.2289 36.8344 55.2289 36.855C55.2289 36.8755 57.7771 40.4005 60.8917 44.6884C64.0061 48.9762 66.596 52.5539 66.6469 52.6386C66.7199 52.7602 66.0739 52.7917 63.5769 52.7882L60.4145 52.7838L56.3063 46.7488C54.0468 43.4296 52.1592 40.7138 52.1119 40.7138C52.0644 40.7138 50.174 43.4304 47.9107 46.7509L43.7958 52.788L40.8281 52.7903C39.196 52.7915 37.8605 52.7692 37.8605 52.7405C37.8605 52.7119 40.3616 49.2316 43.4184 45.0064C46.4753 40.7812 48.9534 37.2612 48.9256 37.184C48.8977 37.1068 46.5935 33.983 43.805 30.2421C41.0166 26.5012 38.7352 23.3891 38.7352 23.3262C38.7352 23.2589 40.0089 23.2121 41.8277 23.2125L44.9203 23.2131L48.4711 28.3275ZM22.1789 27.4081C19.6702 27.7349 17.377 29.3602 16.2591 31.6038C15.7428 32.6397 15.244 34.2796 15.244 34.9406V35.2907H23.4284H31.6128V34.879C31.6128 34.1582 31.1375 32.6017 30.6148 31.6106C29.3874 29.2833 27.1325 27.7365 24.4912 27.4099C23.3323 27.2665 23.2665 27.2665 22.1789 27.4081Z" fill="black"/>
</svg>
