<svg width="77" height="76" viewBox="0 0 77 76" fill="none" xmlns="http://www.w3.org/2000/svg">
<path d="M13.6358 0H63.3642C70.9033 0 77 6.16993 77 13.8035V62.1965C77 69.8283 70.905 76 63.3642 76H13.6358C6.09669 76 0 69.8301 0 62.1965V13.8035C0 6.17167 6.09498 0 13.6358 0Z" fill="#330000"/>
<path d="M37.3125 45.6007H25.3775L22.9392 53.2326C22.8741 53.5253 22.6175 53.7193 22.33 53.6864H16.2983C15.9458 53.6864 15.8483 53.4924 15.9458 53.101L26.2775 22.9944C26.3734 22.6687 26.4692 22.3119 26.5992 21.9222C26.7276 21.2397 26.7909 20.5261 26.7909 19.8107C26.7584 19.6479 26.8867 19.485 27.0475 19.4539C27.08 19.4539 27.1126 19.4539 27.1434 19.4539H35.3567C35.6134 19.4539 35.7417 19.5509 35.7742 19.7137L47.485 53.165C47.5809 53.5219 47.485 53.6847 47.1634 53.6847H40.4575C40.2334 53.7176 40.0092 53.5548 39.9442 53.3279L37.3125 45.6007ZM27.2392 39.0064H35.3875C35.1958 38.3239 34.9392 37.5133 34.65 36.668C34.3608 35.7915 34.0716 34.8492 33.7842 33.8758C33.4625 32.8694 33.175 31.8942 32.8533 30.8878C32.5316 29.8814 32.2442 28.9391 31.9875 27.9968C31.7308 27.0875 31.5067 26.2422 31.2825 25.4627H31.2175C30.9283 26.8588 30.5758 28.2549 30.1258 29.6528C29.645 31.2117 29.1642 32.8365 28.6508 34.4595C28.2008 36.1155 27.72 37.6432 27.2392 39.0064Z" fill="#FF9A00"/>
<path d="M54.4784 25.0089C53.4192 25.0419 52.3926 24.6192 51.6226 23.8726C50.8851 23.0603 50.5001 21.9881 50.5309 20.8847C50.4984 19.7796 50.9159 18.742 51.6859 17.9937C52.4559 17.2472 53.4825 16.8574 54.5417 16.8574C55.7925 16.8574 56.7559 17.2472 57.4609 17.9937C58.1659 18.7732 58.5526 19.8125 58.5201 20.8847C58.5526 21.9898 58.1676 23.0603 57.3976 23.8726C56.6584 24.6521 55.5684 25.0748 54.4784 25.0089ZM50.8851 53.1998V28.1926C50.8851 27.867 51.0134 27.7388 51.3026 27.7388H57.6542C57.9434 27.7388 58.0717 27.9016 58.0717 28.1926V53.2015C58.0717 53.5583 57.9434 53.7211 57.6542 53.7211H51.3659C51.0442 53.7194 50.8851 53.5237 50.8851 53.1998Z" fill="#FF9A00"/>
</svg>
