<svg width="150" height="74" viewBox="0 0 150 74" fill="none" xmlns="http://www.w3.org/2000/svg">
<path d="M8.61874 0.875V35H0.978119V0.875H8.61874ZM29.0094 0.875L15.65 17.9375L7.86874 26.375L6.48593 19.2734L11.6187 11.9141L19.6344 0.875H29.0094ZM20.15 35L10.7281 19.4141L16.5406 14.8906L29.1969 35H20.15ZM42.2422 28.9531V18.0781C42.2422 17.3125 42.125 16.6562 41.8906 16.1094C41.6562 15.5625 41.2891 15.1328 40.7891 14.8203C40.2891 14.5078 39.6406 14.3516 38.8437 14.3516C38.1719 14.3516 37.5859 14.4688 37.0859 14.7031C36.6016 14.9375 36.2266 15.2734 35.9609 15.7109C35.7109 16.1484 35.5859 16.6875 35.5859 17.3281H28.2734C28.2734 16.1875 28.5312 15.125 29.0469 14.1406C29.5625 13.1562 30.2969 12.2891 31.25 11.5391C32.2187 10.7891 33.375 10.2109 34.7187 9.80469C36.0625 9.38281 37.5703 9.17188 39.2422 9.17188C41.2266 9.17188 42.9922 9.50781 44.5391 10.1797C46.1016 10.8359 47.3359 11.8281 48.2422 13.1562C49.1484 14.4688 49.6016 16.125 49.6016 18.125V28.7422C49.6016 30.2734 49.6875 31.4766 49.8594 32.3516C50.0469 33.2109 50.3125 33.9609 50.6562 34.6016V35H43.2734C42.9297 34.2656 42.6719 33.3594 42.5 32.2812C42.3281 31.1875 42.2422 30.0781 42.2422 28.9531ZM43.1562 19.5312L43.2031 23.5625H39.5703C38.7578 23.5625 38.0547 23.6641 37.4609 23.8672C36.8828 24.0703 36.4141 24.3516 36.0547 24.7109C35.6953 25.0547 35.4297 25.4609 35.2578 25.9297C35.1016 26.3828 35.0234 26.8828 35.0234 27.4297C35.0234 27.9453 35.1484 28.4141 35.3984 28.8359C35.6484 29.2422 35.9922 29.5625 36.4297 29.7969C36.8672 30.0312 37.375 30.1484 37.9531 30.1484C38.9062 30.1484 39.7187 29.9609 40.3906 29.5859C41.0781 29.2109 41.6094 28.7578 41.9844 28.2266C42.3594 27.6797 42.5469 27.1719 42.5469 26.7031L44.3047 29.75C44.0234 30.375 43.6797 31.0234 43.2734 31.6953C42.8672 32.3516 42.3516 32.9688 41.7266 33.5469C41.1016 34.1094 40.3437 34.5703 39.4531 34.9297C38.5781 35.2891 37.5234 35.4688 36.2891 35.4688C34.6953 35.4688 33.25 35.1484 31.9531 34.5078C30.6562 33.8516 29.6172 32.9531 28.8359 31.8125C28.0703 30.6719 27.6875 29.3594 27.6875 27.875C27.6875 26.5469 27.9297 25.3672 28.4141 24.3359C28.8984 23.3047 29.625 22.4297 30.5937 21.7109C31.5781 20.9922 32.8125 20.4531 34.2969 20.0938C35.7812 19.7188 37.5156 19.5312 39.5 19.5312H43.1562ZM59.3422 15.5469V35H52.0297V9.64062H58.8969L59.3422 15.5469ZM66.9125 9.45312L66.7953 16.2734C66.4828 16.2266 66.0766 16.1875 65.5766 16.1562C65.0766 16.1094 64.6469 16.0859 64.2875 16.0859C63.35 16.0859 62.5375 16.2031 61.85 16.4375C61.1781 16.6562 60.6156 16.9844 60.1625 17.4219C59.725 17.8594 59.3969 18.4062 59.1781 19.0625C58.9594 19.7031 58.85 20.4453 58.85 21.2891L57.4672 20.6094C57.4672 18.9375 57.6312 17.4062 57.9594 16.0156C58.2875 14.625 58.7641 13.4219 59.3891 12.4062C60.0141 11.375 60.7797 10.5781 61.6859 10.0156C62.5922 9.45312 63.6234 9.17188 64.7797 9.17188C65.1547 9.17188 65.5375 9.19531 65.9281 9.24219C66.3187 9.28906 66.6469 9.35938 66.9125 9.45312ZM81.0125 27.9453C81.0125 27.4766 80.8641 27.0625 80.5672 26.7031C80.2859 26.3438 79.7703 26.0156 79.0203 25.7188C78.2859 25.4219 77.2469 25.125 75.9031 24.8281C74.6375 24.5625 73.4578 24.2188 72.3641 23.7969C71.2703 23.3594 70.3172 22.8359 69.5047 22.2266C68.6922 21.6016 68.0594 20.8672 67.6062 20.0234C67.1531 19.1641 66.9266 18.1875 66.9266 17.0938C66.9266 16.0312 67.1531 15.0234 67.6062 14.0703C68.075 13.1172 68.7469 12.2734 69.6219 11.5391C70.5125 10.8047 71.5906 10.2266 72.8562 9.80469C74.1375 9.38281 75.5906 9.17188 77.2156 9.17188C79.45 9.17188 81.3797 9.52344 83.0047 10.2266C84.6297 10.9141 85.8797 11.8828 86.7547 13.1328C87.6297 14.3672 88.0672 15.7812 88.0672 17.375H80.7547C80.7547 16.7188 80.6297 16.1484 80.3797 15.6641C80.1297 15.1797 79.7469 14.8047 79.2312 14.5391C78.7156 14.2578 78.0359 14.1172 77.1922 14.1172C76.5359 14.1172 75.9578 14.2344 75.4578 14.4688C74.9734 14.6875 74.5906 14.9922 74.3094 15.3828C74.0437 15.7734 73.9109 16.2266 73.9109 16.7422C73.9109 17.1016 73.9891 17.4297 74.1453 17.7266C74.3172 18.0078 74.575 18.2734 74.9187 18.5234C75.2781 18.7578 75.7391 18.9688 76.3016 19.1562C76.8797 19.3438 77.5828 19.5234 78.4109 19.6953C80.1766 20.0234 81.7859 20.4844 83.2391 21.0781C84.7078 21.6719 85.8797 22.4922 86.7547 23.5391C87.6453 24.5859 88.0906 25.9688 88.0906 27.6875C88.0906 28.8125 87.8328 29.8438 87.3172 30.7812C86.8172 31.7188 86.0906 32.5391 85.1375 33.2422C84.1844 33.9453 83.0437 34.4922 81.7156 34.8828C80.3875 35.2734 78.8875 35.4688 77.2156 35.4688C74.825 35.4688 72.8016 35.0391 71.1453 34.1797C69.4891 33.3203 68.2391 32.2422 67.3953 30.9453C66.5672 29.6328 66.1531 28.2891 66.1531 26.9141H73.0203C73.0516 27.7578 73.2625 28.4453 73.6531 28.9766C74.0594 29.5078 74.5828 29.8984 75.2234 30.1484C75.8641 30.3828 76.5828 30.5 77.3797 30.5C78.1766 30.5 78.8406 30.3906 79.3719 30.1719C79.9031 29.9531 80.3094 29.6562 80.5906 29.2812C80.8719 28.8906 81.0125 28.4453 81.0125 27.9453ZM102.659 9.64062V14.7734H87.6125V9.64062H102.659ZM91.0578 3.35938H98.3937V27.0547C98.3937 27.7578 98.4797 28.2969 98.6516 28.6719C98.8234 29.0469 99.1047 29.3125 99.4953 29.4688C99.8859 29.6094 100.386 29.6797 100.995 29.6797C101.433 29.6797 101.808 29.6641 102.12 29.6328C102.433 29.6016 102.722 29.5625 102.987 29.5156V34.8125C102.362 35.0156 101.698 35.1719 100.995 35.2812C100.292 35.4062 99.5266 35.4688 98.6984 35.4688C97.1203 35.4688 95.7531 35.2109 94.5969 34.6953C93.4562 34.1797 92.5812 33.3672 91.9719 32.2578C91.3625 31.1328 91.0578 29.6719 91.0578 27.875V3.35938ZM115.728 35.4688C113.712 35.4688 111.908 35.1484 110.314 34.5078C108.72 33.8672 107.369 32.9844 106.259 31.8594C105.166 30.7188 104.33 29.4062 103.752 27.9219C103.173 26.4375 102.884 24.8516 102.884 23.1641V22.2734C102.884 20.3828 103.15 18.6406 103.681 17.0469C104.212 15.4531 104.986 14.0703 106.002 12.8984C107.033 11.7109 108.298 10.7969 109.798 10.1562C111.298 9.5 113.009 9.17188 114.931 9.17188C116.728 9.17188 118.33 9.46875 119.736 10.0625C121.142 10.6406 122.33 11.4766 123.298 12.5703C124.267 13.6484 125.002 14.9531 125.502 16.4844C126.017 18 126.275 19.7031 126.275 21.5938V24.5938H105.837V19.8828H119.103V19.3203C119.103 18.4297 118.939 17.6484 118.611 16.9766C118.298 16.3047 117.83 15.7891 117.205 15.4297C116.595 15.0547 115.822 14.8672 114.884 14.8672C113.994 14.8672 113.252 15.0547 112.658 15.4297C112.064 15.8047 111.587 16.3359 111.228 17.0234C110.884 17.6953 110.634 18.4844 110.478 19.3906C110.322 20.2812 110.244 21.2422 110.244 22.2734V23.1641C110.244 24.1484 110.377 25.0469 110.642 25.8594C110.908 26.6719 111.298 27.3672 111.814 27.9453C112.33 28.5234 112.955 28.9766 113.689 29.3047C114.423 29.6328 115.259 29.7969 116.197 29.7969C117.353 29.7969 118.455 29.5781 119.502 29.1406C120.548 28.6875 121.455 27.9844 122.22 27.0312L125.642 30.9453C125.127 31.6953 124.4 32.4219 123.462 33.125C122.541 33.8125 121.431 34.375 120.134 34.8125C118.837 35.25 117.369 35.4688 115.728 35.4688ZM134.609 15.0547V35H127.273V9.64062H134.164L134.609 15.0547ZM133.648 21.4297L131.82 21.4766C131.82 19.5703 132.055 17.8594 132.523 16.3438C132.992 14.8281 133.656 13.5391 134.516 12.4766C135.391 11.3984 136.43 10.5781 137.633 10.0156C138.852 9.45312 140.195 9.17188 141.664 9.17188C142.852 9.17188 143.937 9.34375 144.922 9.6875C145.906 10.0313 146.75 10.5859 147.453 11.3516C148.172 12.1016 148.719 13.1016 149.094 14.3516C149.469 15.5859 149.656 17.1094 149.656 18.9219V35H142.297V18.8984C142.297 17.8359 142.148 17.0156 141.852 16.4375C141.555 15.8594 141.117 15.4531 140.539 15.2188C139.977 14.9844 139.289 14.8672 138.477 14.8672C137.617 14.8672 136.883 15.0391 136.273 15.3828C135.664 15.7109 135.164 16.1719 134.773 16.7656C134.383 17.3594 134.094 18.0547 133.906 18.8516C133.734 19.6484 133.648 20.5078 133.648 21.4297ZM41.8438 67.0938V73H24.6172V67.0938H41.8438ZM27.2188 38.875V73H19.5781V38.875H27.2188ZM56.2484 66.9531V56.0781C56.2484 55.3125 56.1312 54.6562 55.8969 54.1094C55.6625 53.5625 55.2953 53.1328 54.7953 52.8203C54.2953 52.5078 53.6469 52.3516 52.85 52.3516C52.1781 52.3516 51.5922 52.4688 51.0922 52.7031C50.6078 52.9375 50.2328 53.2734 49.9672 53.7109C49.7172 54.1484 49.5922 54.6875 49.5922 55.3281H42.2797C42.2797 54.1875 42.5375 53.125 43.0531 52.1406C43.5687 51.1562 44.3031 50.2891 45.2562 49.5391C46.225 48.7891 47.3812 48.2109 48.725 47.8047C50.0687 47.3828 51.5766 47.1719 53.2484 47.1719C55.2328 47.1719 56.9984 47.5078 58.5453 48.1797C60.1078 48.8359 61.3422 49.8281 62.2484 51.1562C63.1547 52.4688 63.6078 54.125 63.6078 56.125V66.7422C63.6078 68.2734 63.6937 69.4766 63.8656 70.3516C64.0531 71.2109 64.3187 71.9609 64.6625 72.6016V73H57.2797C56.9359 72.2656 56.6781 71.3594 56.5062 70.2812C56.3344 69.1875 56.2484 68.0781 56.2484 66.9531ZM57.1625 57.5312L57.2094 61.5625H53.5766C52.7641 61.5625 52.0609 61.6641 51.4672 61.8672C50.8891 62.0703 50.4203 62.3516 50.0609 62.7109C49.7016 63.0547 49.4359 63.4609 49.2641 63.9297C49.1078 64.3828 49.0297 64.8828 49.0297 65.4297C49.0297 65.9453 49.1547 66.4141 49.4047 66.8359C49.6547 67.2422 49.9984 67.5625 50.4359 67.7969C50.8734 68.0312 51.3812 68.1484 51.9594 68.1484C52.9125 68.1484 53.725 67.9609 54.3969 67.5859C55.0844 67.2109 55.6156 66.7578 55.9906 66.2266C56.3656 65.6797 56.5531 65.1719 56.5531 64.7031L58.3109 67.75C58.0297 68.375 57.6859 69.0234 57.2797 69.6953C56.8734 70.3516 56.3578 70.9688 55.7328 71.5469C55.1078 72.1094 54.35 72.5703 53.4594 72.9297C52.5844 73.2891 51.5297 73.4688 50.2953 73.4688C48.7016 73.4688 47.2562 73.1484 45.9594 72.5078C44.6625 71.8516 43.6234 70.9531 42.8422 69.8125C42.0766 68.6719 41.6937 67.3594 41.6937 65.875C41.6937 64.5469 41.9359 63.3672 42.4203 62.3359C42.9047 61.3047 43.6312 60.4297 44.6 59.7109C45.5844 58.9922 46.8187 58.4531 48.3031 58.0938C49.7875 57.7188 51.5219 57.5312 53.5062 57.5312H57.1625ZM73.3484 53.5469V73H66.0359V47.6406H72.9031L73.3484 53.5469ZM80.9187 47.4531L80.8016 54.2734C80.4891 54.2266 80.0828 54.1875 79.5828 54.1562C79.0828 54.1094 78.6531 54.0859 78.2937 54.0859C77.3562 54.0859 76.5437 54.2031 75.8562 54.4375C75.1844 54.6562 74.6219 54.9844 74.1687 55.4219C73.7312 55.8594 73.4031 56.4062 73.1844 57.0625C72.9656 57.7031 72.8562 58.4453 72.8562 59.2891L71.4734 58.6094C71.4734 56.9375 71.6375 55.4062 71.9656 54.0156C72.2937 52.625 72.7703 51.4219 73.3953 50.4062C74.0203 49.375 74.7859 48.5781 75.6922 48.0156C76.5984 47.4531 77.6297 47.1719 78.7859 47.1719C79.1609 47.1719 79.5437 47.1953 79.9344 47.2422C80.325 47.2891 80.6531 47.3594 80.9187 47.4531ZM95.0188 65.9453C95.0188 65.4766 94.8703 65.0625 94.5734 64.7031C94.2922 64.3438 93.7766 64.0156 93.0266 63.7188C92.2922 63.4219 91.2531 63.125 89.9094 62.8281C88.6438 62.5625 87.4641 62.2188 86.3703 61.7969C85.2766 61.3594 84.3234 60.8359 83.5109 60.2266C82.6984 59.6016 82.0656 58.8672 81.6125 58.0234C81.1594 57.1641 80.9328 56.1875 80.9328 55.0938C80.9328 54.0312 81.1594 53.0234 81.6125 52.0703C82.0813 51.1172 82.7531 50.2734 83.6281 49.5391C84.5188 48.8047 85.5969 48.2266 86.8625 47.8047C88.1438 47.3828 89.5969 47.1719 91.2219 47.1719C93.4563 47.1719 95.3859 47.5234 97.0109 48.2266C98.6359 48.9141 99.8859 49.8828 100.761 51.1328C101.636 52.3672 102.073 53.7812 102.073 55.375H94.7609C94.7609 54.7188 94.6359 54.1484 94.3859 53.6641C94.1359 53.1797 93.7531 52.8047 93.2375 52.5391C92.7219 52.2578 92.0422 52.1172 91.1984 52.1172C90.5422 52.1172 89.9641 52.2344 89.4641 52.4688C88.9797 52.6875 88.5969 52.9922 88.3156 53.3828C88.05 53.7734 87.9172 54.2266 87.9172 54.7422C87.9172 55.1016 87.9953 55.4297 88.1516 55.7266C88.3234 56.0078 88.5813 56.2734 88.925 56.5234C89.2844 56.7578 89.7453 56.9688 90.3078 57.1562C90.8859 57.3438 91.5891 57.5234 92.4172 57.6953C94.1828 58.0234 95.7922 58.4844 97.2453 59.0781C98.7141 59.6719 99.8859 60.4922 100.761 61.5391C101.652 62.5859 102.097 63.9688 102.097 65.6875C102.097 66.8125 101.839 67.8438 101.323 68.7812C100.823 69.7188 100.097 70.5391 99.1438 71.2422C98.1906 71.9453 97.05 72.4922 95.7219 72.8828C94.3938 73.2734 92.8938 73.4688 91.2219 73.4688C88.8313 73.4688 86.8078 73.0391 85.1516 72.1797C83.4953 71.3203 82.2453 70.2422 81.4016 68.9453C80.5734 67.6328 80.1594 66.2891 80.1594 64.9141H87.0266C87.0578 65.7578 87.2688 66.4453 87.6594 66.9766C88.0656 67.5078 88.5891 67.8984 89.2297 68.1484C89.8703 68.3828 90.5891 68.5 91.3859 68.5C92.1828 68.5 92.8469 68.3906 93.3781 68.1719C93.9094 67.9531 94.3156 67.6562 94.5969 67.2812C94.8781 66.8906 95.0188 66.4453 95.0188 65.9453ZM115.728 73.4688C113.713 73.4688 111.908 73.1484 110.314 72.5078C108.72 71.8672 107.369 70.9844 106.259 69.8594C105.166 68.7188 104.33 67.4062 103.752 65.9219C103.173 64.4375 102.884 62.8516 102.884 61.1641V60.2734C102.884 58.3828 103.15 56.6406 103.681 55.0469C104.213 53.4531 104.986 52.0703 106.002 50.8984C107.033 49.7109 108.298 48.7969 109.798 48.1562C111.298 47.5 113.009 47.1719 114.931 47.1719C116.728 47.1719 118.33 47.4688 119.736 48.0625C121.142 48.6406 122.33 49.4766 123.298 50.5703C124.267 51.6484 125.002 52.9531 125.502 54.4844C126.017 56 126.275 57.7031 126.275 59.5938V62.5938H105.838V57.8828H119.103V57.3203C119.103 56.4297 118.939 55.6484 118.611 54.9766C118.298 54.3047 117.83 53.7891 117.205 53.4297C116.595 53.0547 115.822 52.8672 114.884 52.8672C113.994 52.8672 113.252 53.0547 112.658 53.4297C112.064 53.8047 111.588 54.3359 111.228 55.0234C110.884 55.6953 110.634 56.4844 110.478 57.3906C110.322 58.2812 110.244 59.2422 110.244 60.2734V61.1641C110.244 62.1484 110.377 63.0469 110.642 63.8594C110.908 64.6719 111.298 65.3672 111.814 65.9453C112.33 66.5234 112.955 66.9766 113.689 67.3047C114.423 67.6328 115.259 67.7969 116.197 67.7969C117.353 67.7969 118.455 67.5781 119.502 67.1406C120.548 66.6875 121.455 65.9844 122.22 65.0312L125.642 68.9453C125.127 69.6953 124.4 70.4219 123.463 71.125C122.541 71.8125 121.431 72.375 120.134 72.8125C118.838 73.25 117.369 73.4688 115.728 73.4688ZM134.609 53.0547V73H127.273V47.6406H134.164L134.609 53.0547ZM133.648 59.4297L131.82 59.4766C131.82 57.5703 132.055 55.8594 132.523 54.3438C132.992 52.8281 133.656 51.5391 134.516 50.4766C135.391 49.3984 136.43 48.5781 137.633 48.0156C138.852 47.4531 140.195 47.1719 141.664 47.1719C142.852 47.1719 143.938 47.3438 144.922 47.6875C145.906 48.0312 146.75 48.5859 147.453 49.3516C148.172 50.1016 148.719 51.1016 149.094 52.3516C149.469 53.5859 149.656 55.1094 149.656 56.9219V73H142.297V56.8984C142.297 55.8359 142.148 55.0156 141.852 54.4375C141.555 53.8594 141.117 53.4531 140.539 53.2188C139.977 52.9844 139.289 52.8672 138.477 52.8672C137.617 52.8672 136.883 53.0391 136.273 53.3828C135.664 53.7109 135.164 54.1719 134.773 54.7656C134.383 55.3594 134.094 56.0547 133.906 56.8516C133.734 57.6484 133.648 58.5078 133.648 59.4297Z" fill="#303030"/>
</svg>
