<svg width="695" height="213" viewBox="0 0 695 213" fill="none" xmlns="http://www.w3.org/2000/svg">
<g filter="url(#filter0_d_66_52)">
<mask id="path-1-inside-1_66_52" fill="white">
<path fill-rule="evenodd" clip-rule="evenodd" d="M23.1145 0.594889C17.1465 1.99289 8.72151 9.93889 4.86751 17.8039C-8.41049 44.9069 6.78151 122.075 34.6285 168.976C39.0415 176.408 43.6965 182.476 44.9845 182.476C45.5195 182.476 44.7655 180.564 43.3105 178.226C39.0725 171.421 28.4165 148.806 24.5805 138.476C19.7445 125.452 14.4155 105.72 11.2125 88.9759C8.94751 77.1379 8.51951 72.1189 8.43851 56.4759C8.35251 39.7739 8.56851 37.2609 10.6555 30.6159C15.0805 16.5299 27.5825 8.38489 38.4415 12.5129C40.1245 13.1529 41.5255 13.1939 42.1005 12.6189C43.3875 11.3319 39.5455 2.92189 37.0625 1.59289C33.9975 -0.0471121 27.7615 -0.493111 23.1145 0.594889ZM426.483 8.49889C415.596 11.2469 406.026 16.5389 398.725 23.8499C392.778 29.8039 386.846 39.7929 386.845 43.8569C386.844 45.1669 385.6 44.1749 382.745 40.5889C380.49 37.7569 377.822 34.9989 376.815 34.4609C375.155 33.5719 375.067 33.7659 375.867 36.5559C376.563 38.9819 375.614 44.0979 371.372 60.8029C362.795 94.5789 362.401 96.9789 362.371 115.476C362.342 133.395 362.853 136.544 365.44 134.396C368.056 132.225 373.673 120.091 376.367 110.796C377.763 105.98 379.755 101.125 380.794 100.008C381.832 98.8899 382.986 96.3309 383.357 94.3199C383.909 91.3269 383.628 90.2609 381.811 88.4439L379.592 86.2249L383.275 72.6009C385.301 65.1069 387.205 58.1339 387.507 57.1049C387.939 55.6299 388.457 56.1289 389.947 59.4569C392.018 64.0839 397.507 71.4759 398.872 71.4759C399.345 71.4759 398.761 69.3379 397.574 66.7259C394.473 59.8979 394.532 49.6229 397.712 43.1639C400.969 36.5489 408.933 29.0129 416.461 25.4199C427.425 20.1879 436.719 18.2889 451.578 18.2449C463.699 18.2099 465.236 18.4159 469.828 20.6879C475.751 23.6199 476.251 22.6759 472.594 15.4609C468.879 8.13189 465.87 7.02789 448.844 6.75089C437.121 6.55989 432.839 6.89489 426.483 8.49889ZM106.844 10.5959C103.819 11.0819 98.0865 13.0769 94.1055 15.0269C80.6705 21.6089 64.8335 40.1929 57.5835 57.8809L54.3435 65.7869L54.0545 59.8809C53.8655 56.0069 54.6125 50.7199 56.2275 44.5089C58.4915 35.8019 58.5715 34.7579 57.2245 31.5089C55.8555 28.2069 48.7555 20.4759 47.0915 20.4759C46.6805 20.4759 46.3005 21.7129 46.2475 23.2259C46.1955 24.7389 45.1825 29.5349 43.9975 33.8859C39.8465 49.1289 41.3925 76.0899 48.0075 103.789L51.1565 116.976L53.9715 103.671C60.7575 71.6059 70.5245 50.6139 85.5455 35.8139C99.7475 21.8199 119.108 18.0019 135.008 26.0589C140.211 28.6949 141.147 28.2419 140.207 23.5429C138.495 14.9819 121.227 8.28089 106.844 10.5959ZM346.432 13.5009C341.186 18.3369 340.881 19.0589 336.298 37.4759C331.329 57.4419 327.904 74.6069 327.169 83.2259C326.829 87.2129 326.303 90.4759 326.001 90.4759C325.699 90.4759 324.171 89.2469 322.603 87.7459L319.753 85.0149L321.32 88.7659C322.718 92.1139 322.729 93.1339 321.419 98.2469C317.947 111.803 317.08 131.004 319.746 135.318C320.705 136.869 322.073 134.941 327.1 124.959C332.127 114.977 333.761 108.638 334.9 94.6919C336.386 76.4969 345.968 33.0889 349.941 26.5549C353.8 20.2089 361.111 20.0119 367.82 26.0729C370.073 28.1089 371.939 29.1289 372.311 28.5279C373.455 26.6759 369.255 19.0569 364.952 15.1809C357.158 8.16089 352.667 7.75289 346.432 13.5009ZM478.503 31.7599C479.268 36.4779 477.387 42.3779 473.69 46.8549C470.4 50.8369 462.068 55.4489 458.129 55.4659C455.685 55.4769 453.826 58.1389 454.632 60.4759C454.916 61.3009 456.722 63.4719 458.645 65.2989C461.939 68.4299 462.436 68.5849 467.242 67.9769C482.465 66.0489 493.345 53.7669 489.929 42.3649C488.73 38.3649 483.11 31.2249 479.742 29.4219C478.172 28.5819 478.03 28.8499 478.503 31.7599ZM144.064 39.9439C142.035 47.5279 136.734 48.9679 125.611 44.9569C119.681 42.8179 117.378 43.3989 110.69 48.7179L105.344 52.9709L110.877 53.5679C113.92 53.8969 118.239 55.2189 120.476 56.5069C124.464 58.8019 124.614 58.8129 128.24 57.0919C132.175 55.2249 136.014 55.5259 141.044 58.0959C145.318 60.2799 149.448 59.8019 152.888 56.7259C155.4 54.4799 155.975 53.1799 156.023 49.6309C156.076 45.7469 155.571 44.7669 151.251 40.3809C148.593 37.6829 146.158 35.4759 145.839 35.4759C145.52 35.4759 144.721 37.4869 144.064 39.9439ZM444.19 36.5119C431.145 38.8399 420.237 45.7209 417.777 53.1749C414.149 64.1699 421.676 75.2699 435.982 80.0219C441.856 81.9729 443.844 81.4469 443.844 77.9419C443.844 73.5579 442.072 71.6669 435.836 69.3929C431.439 67.7899 429.844 66.7119 429.844 65.3449C429.844 62.5659 436.572 55.6469 441.901 52.9469C444.477 51.6419 446.813 49.6989 447.092 48.6309C447.443 47.2889 449.327 46.1869 453.186 45.0649C459.838 43.1309 464.951 39.2319 463.186 37.4379C461.662 35.8879 450.688 35.3529 444.19 36.5119ZM93.3765 73.7259C79.9665 101.116 72.9125 131.561 71.1925 169.464C70.8555 176.896 70.0015 184.403 69.2945 186.148C67.5215 190.529 63.7705 192.774 58.9885 192.318C55.2555 191.962 55.1595 192.028 56.4735 194.034C57.2245 195.181 60.1515 198 62.9765 200.298C68.8275 205.057 72.4655 205.614 77.5325 202.524C81.4645 200.126 82.8265 195.761 82.8485 185.476C82.8755 172.875 86.8915 139.862 89.4405 131.279C89.8485 129.907 90.6315 130.342 93.5345 133.555C95.5085 135.741 97.2755 137.378 97.4605 137.193C97.6445 137.008 96.7965 134.409 95.5755 131.416C93.5305 126.403 93.3565 124.366 93.3655 105.476C93.3765 81.9509 94.1215 78.7419 100.254 75.8179C103.181 74.4219 104.42 74.3319 107.605 75.2859C112.794 76.8409 119.057 82.4049 121.356 87.5029C123.205 91.6019 123.206 91.9009 121.405 100.338C119.238 110.489 118.04 132.476 119.653 132.476C120.234 132.476 120.998 131.565 121.352 130.451C121.705 129.337 123.584 126.882 125.527 124.995C130.864 119.812 134.021 110.257 133.233 101.674C132.169 90.0929 135.608 82.7499 144.22 78.2179C147.479 76.5019 150.265 76.0119 157.502 75.8779C162.538 75.7839 167.151 75.4039 167.752 75.0329C169.494 73.9559 169.022 71.0449 166.702 68.5539C161.161 62.6059 149.671 61.6879 140.251 66.4389L134.377 69.4019L131.61 66.7519L128.844 64.1019V67.2659C128.844 77.2859 107.838 74.4309 102.844 63.7329C102.019 61.9649 101.011 60.5099 100.604 60.4979C100.197 60.4859 96.9435 66.4389 93.3765 73.7259ZM180.344 63.6709C176.815 65.6729 172.045 71.3379 170.857 74.9359C169.892 77.8609 169.984 78.9049 171.424 81.3419C173.525 84.8989 172.722 87.4759 169.51 87.4759C166.094 87.4759 162.187 90.9069 160.793 95.1289C159.462 99.1649 160.023 106.519 162.029 111.315L163.344 114.46L168.344 112.127C171.094 110.844 174.019 108.982 174.844 107.988C175.804 106.833 176.748 101.983 177.465 94.5279C178.72 81.4939 180.311 77.3529 184.78 75.5019C189.11 73.7089 193.852 74.9349 198.729 79.1099C201.045 81.0919 203.208 82.4449 203.536 82.1169C204.916 80.7369 200.449 72.3659 196.284 68.5269C189.894 62.6379 184.866 61.1059 180.344 63.6709ZM212.752 67.2259C208.33 71.4739 207.658 72.7059 206.379 78.8909C205.343 83.9079 205.242 86.3499 206.01 87.7869C207.173 89.9589 206.779 94.7869 204.445 106.976C202.859 115.263 202.512 128.118 203.758 132.476C204.401 134.728 204.693 134.39 206.705 129.062C210.337 119.445 212.983 106.734 213.857 94.7119C214.444 86.6419 215.211 82.5329 216.56 80.2219C220.766 73.0219 227.512 72.7909 235.23 79.5849C239.327 83.1909 239.844 83.4079 239.844 81.5209C239.844 76.2569 231.51 65.7869 225.529 63.5359C220.297 61.5659 217.931 62.2499 212.752 67.2259ZM479.909 66.0369C473.995 71.3789 473.191 73.4689 471.845 86.9879C470.27 102.796 463.35 124.153 454.065 141.861C448.343 152.772 439.422 157.464 429.849 154.596C426.339 153.544 426.021 153.137 425.639 149.217C424.731 139.897 429.226 127.046 436.267 118.831C440.65 113.718 449.869 107.476 453.04 107.476C460.051 107.476 461.968 100.853 456.594 95.1999C453.628 92.0799 448.909 88.8379 448.508 89.6449C446.897 92.8899 445.647 94.1189 443.24 94.8219C428.963 98.9899 417.618 111.78 414.363 127.379C410.211 147.275 425.868 169.945 441.707 166.974C454.49 164.576 461.039 155.543 472.88 123.976C477.451 111.793 478.316 108.289 479.547 96.9759C480.35 89.5989 481.692 82.4679 482.652 80.4899C486.163 73.2529 493.115 72.7469 501.466 79.1219L506.135 82.6859L505.468 79.3469C503.916 71.5879 495.735 63.8079 488.044 62.7759C484.534 62.3049 483.643 62.6629 479.909 66.0369ZM292.194 66.9229C288.724 70.1959 288.401 70.2989 285.797 68.9519C281.551 66.7559 275.691 66.1709 270.892 67.4629C265.248 68.9829 256.457 77.2759 251.899 85.3779L248.515 91.3939L245.145 88.4349C243.291 86.8079 241.588 85.4759 241.36 85.4759C241.132 85.4759 241.575 86.9799 242.343 88.8189C243.538 91.6789 243.538 93.0259 242.347 98.1319C239.416 110.697 238.595 127.223 240.449 136.314C240.813 138.095 241.235 138.396 242.221 137.578C244.668 135.547 250.789 120.964 253.362 111.033C257.946 93.3399 265.729 81.9299 274.9 79.4609C279.879 78.1199 286.11 78.9549 290.651 81.5709C292.47 82.6189 294.103 83.4759 294.28 83.4759C294.457 83.4759 295.167 82.1089 295.859 80.4379C297.405 76.7059 299.561 75.4759 304.556 75.4759C308.501 75.4759 311.284 76.8849 316.094 81.3159L318.844 83.8499V81.3589C318.844 77.7419 313.598 70.0349 308.742 66.5169C302.675 62.1219 297.14 62.2579 292.194 66.9229ZM513.753 67.3319C510.106 70.7669 509.581 71.8579 508.938 77.3129C508.54 80.6819 507.945 83.7079 507.615 84.0379C507.285 84.3689 507.668 86.2069 508.469 88.1219C509.776 91.2519 509.725 92.5369 507.961 100.791C505.156 113.914 504.512 120.562 505.318 128.09C506.087 135.269 506.684 135.33 509.099 128.476C513.684 115.459 516.842 100.127 516.843 90.8749C516.844 79.6949 519.09 75.4759 525.042 75.4759C527.755 75.4759 534.353 78.7759 537.589 81.7519C540.386 84.3239 541.268 83.5469 540.456 79.2229C539.324 73.1849 527.087 63.4759 520.611 63.4759C518.779 63.4759 516.467 64.7759 513.753 67.3319ZM627.849 65.2199C619.231 68.2609 609.844 80.1189 609.844 87.9639C609.844 89.3369 609.545 89.4729 608.477 88.5859C607.337 87.6399 607.182 88.5749 607.549 94.2139C607.918 99.8809 607.614 101.703 605.667 105.468C602.899 110.821 595.334 116.799 589.13 118.536L584.718 119.771L585.351 123.874C587.031 134.762 590.413 139.132 596.409 138.159C601.398 137.349 604.748 134.949 606.398 131.002C607.16 129.176 609.531 126.174 611.666 124.329C614.283 122.068 616.256 119.069 617.721 115.122C619.642 109.945 619.769 108.584 618.823 103.368C615.625 85.7319 625.804 74.9819 645.041 75.6769C654.122 76.0039 655.726 75.1049 653.695 70.8239C650.621 64.3479 638.047 61.6219 627.849 65.2199ZM578.13 66.9269C568.219 70.0239 558.292 78.7119 553.214 88.7329L550.757 93.5809L547.55 90.8779L544.344 88.1749L543.697 101.576C543.023 115.528 540.319 143.731 539.245 148.009C538.477 151.07 539.595 151.118 543.909 148.211C551.318 143.218 556.844 130.031 556.844 117.343C556.844 100.828 563.895 87.6039 575.901 81.6049C586.089 76.5139 593.413 76.3379 600.31 81.0179L603.844 83.4159V80.8959C603.844 75.5889 599.106 69.7369 592.612 67.0239C588.185 65.1739 583.832 65.1449 578.13 66.9269ZM404.776 84.6409C402.477 86.3059 397.789 90.5169 394.359 93.9979C388.822 99.6179 388.046 100.899 387.448 105.406C386.677 111.215 380.802 128.672 377.346 135.423C376.065 137.927 373.29 141.637 371.18 143.666C365.095 149.52 359.475 150.888 353.727 147.915C350.781 146.392 350.734 146.404 351.815 148.423C353.271 151.145 362.446 158.384 366.721 160.186C370.875 161.936 376.764 161.113 380.367 158.279C381.787 157.162 383.065 156.412 383.208 156.612C388.797 164.461 391.08 167.372 392.915 168.994C395.008 170.844 394.98 170.67 392.505 166.396C380.848 146.269 384.028 120.685 400.234 104.218C405.862 98.4989 414.312 92.5139 420.083 90.1599L423.242 88.8709L416.098 85.2419L408.954 81.6129L404.776 84.6409ZM124.527 86.6639C124.208 87.4609 123.971 87.2239 123.923 86.0589C123.88 85.0049 124.116 84.4149 124.448 84.7469C124.78 85.0789 124.816 85.9419 124.527 86.6639ZM657.929 85.8739C657.307 86.6219 655.446 87.5059 653.791 87.8369C645.572 89.4799 642.744 99.8119 647.438 111.046L648.809 114.329L652.893 112.725C655.202 111.818 657.562 110.003 658.325 108.548C660.129 105.106 665.795 99.8619 668.635 99.0059C670.376 98.4809 670.773 97.8299 670.286 96.2959C669.933 95.1849 669.534 93.2659 669.398 92.0309C669.033 88.7039 667.985 87.4759 665.507 87.4759C664.287 87.4759 662.337 86.8089 661.174 85.9939C659.396 84.7489 658.878 84.7299 657.929 85.8739ZM592.945 97.0129C590.094 100.261 586.844 106.445 586.844 108.624C586.844 110.314 592.73 106.492 595.284 103.144C598.483 98.9489 599.779 93.4759 597.573 93.4759C596.736 93.4759 594.654 95.0679 592.945 97.0129ZM287.613 96.2259C282.049 102.544 277.448 117.478 278.009 127.401C278.543 136.866 279.977 138.163 284.354 133.145C289.993 126.679 292.619 118.529 292.622 107.476C292.624 98.4989 291.801 94.4759 289.964 94.4759C289.518 94.4759 288.461 95.2629 287.613 96.2259ZM672.464 110.226C670.092 114.785 666.043 117.863 659.526 120.062L653.344 122.148L653.682 128.252C654.588 144.588 645.2 155.068 628.591 156.26C620.13 156.868 614.3 154.83 609.594 149.621L606.216 145.883L601.281 148.221C591.325 152.935 576.828 149.513 567.58 140.265L563.21 135.895L561.372 141.645C559.644 147.051 554.565 154.709 553.036 154.213C552.655 154.09 550.769 154.957 548.844 156.141C546.919 157.324 543.544 158.773 541.344 159.359C537.578 160.364 537.245 160.764 535.65 166.217C532.58 176.715 526.471 183.501 517.43 186.459C511.687 188.337 501.055 187.19 494.719 184.007C491.885 182.584 489.384 181.602 489.161 181.825C488.938 182.047 491.564 184.77 494.995 187.874C503.761 195.808 510.452 198.884 519.893 199.32C528.139 199.702 532.348 198.481 538.214 194.006C541.834 191.245 547.186 182.07 548.33 176.662C548.82 174.345 549.829 173.041 551.688 172.327C562.083 168.331 568.637 162.768 572.896 154.325C574.103 151.933 575.248 149.8 575.44 149.586C575.633 149.371 577.662 150.885 579.948 152.951C589.222 161.329 602.497 164.515 612.406 160.74L617.466 158.811L621.406 162.227C626.804 166.909 631.014 168.475 638.216 168.481C646.037 168.487 652.983 165.985 658.411 161.207C663.857 156.414 666.147 150.04 665.679 140.978C665.349 134.599 665.387 134.489 668.344 133.311C673.604 131.215 679.834 126.451 682.279 122.656C686.272 116.457 686.298 115.101 682.508 111.083C678.244 106.562 674.535 106.245 672.464 110.226ZM172.344 120.499L168.344 122.36L168.2 130.384C167.964 143.533 163.508 150.136 151.892 154.55C142.457 158.135 131.666 156.748 125.656 151.177C123.416 149.102 122.281 148.785 118.582 149.202C115.641 149.534 113.139 149.163 111.059 148.087C105.993 145.468 106.116 146.176 111.709 151.839C118.665 158.882 124.624 161.874 130.402 161.222C133.799 160.839 135.135 161.14 136.436 162.578C141.698 168.392 154.261 170.209 163.892 166.55C174.837 162.391 179.382 156.229 180.524 144.002C180.859 140.413 181.502 137.476 181.953 137.476C182.404 137.476 181.904 135.449 180.842 132.972C179.781 130.495 178.614 126.22 178.249 123.472C177.885 120.724 177.307 118.512 176.965 118.557C176.624 118.601 174.544 119.475 172.344 120.499ZM137.232 129.997C134.33 132.899 134.379 136.109 137.353 138.074C140.029 139.841 144.211 137.857 144.677 134.599C145.662 127.71 141.866 125.363 137.232 129.997ZM622.424 129.592C619.092 132.213 619.215 136.37 622.677 138.087C627.666 140.561 631.416 137.044 630.275 130.962C629.49 126.775 626.638 126.277 622.424 129.592ZM335.083 133.265C330.931 143.067 323.081 150.476 316.85 150.476C311.734 150.476 300.299 142.129 297.085 136.048C296.162 134.303 295.872 134.5 294.014 138.143C291.536 143.001 285.813 148.227 282.076 149.045C280.573 149.374 278.766 149.822 278.059 150.041C277.353 150.261 274.488 149.95 271.693 149.35C265.966 148.122 259.849 143.315 257.84 138.465C257.159 136.821 256.318 135.476 255.971 135.476C255.624 135.476 254.266 137.502 252.953 139.977C251.639 142.453 248.612 146.278 246.227 148.477C242.575 151.844 241.213 152.475 237.616 152.472C230.909 152.466 222.513 146.577 218.732 139.226C217.671 137.164 216.63 135.476 216.419 135.476C216.207 135.476 214.867 137.468 213.44 139.903C208.365 148.561 201.854 151.247 194.822 147.581C190.998 145.588 190.827 145.576 191.788 147.371C193.399 150.382 201.602 157.18 206.465 159.534C212.974 162.686 217.095 161.64 223.055 155.324L227.766 150.332L232.555 154.972C245.669 167.679 254.603 167.732 263.266 155.154L266.915 149.854L272.13 154.687C283.476 165.203 295.504 164.5 304.427 152.8L307.595 148.647L311.814 152.946C316.412 157.63 325.001 162.476 328.707 162.476C334.48 162.476 341.955 156.174 346.277 147.664C347.951 144.368 347.944 144.336 344.891 141.213C343.204 139.487 340.755 135.933 339.451 133.314L337.078 128.554L335.083 133.265ZM479.945 143.467C474.309 160.116 465.151 174.198 456.344 179.755C444.136 187.457 423.371 189.118 411.19 183.367C408.524 182.108 405.894 180.885 405.344 180.649C403.328 179.785 411.485 187.74 416.125 191.164C423.682 196.74 429.744 198.597 440.257 198.556C459.062 198.482 472.29 191.933 481.247 178.262C482.939 175.681 482.922 175.5 480.669 172.453C478.966 170.15 478.344 167.973 478.344 164.315C478.344 159.843 478.726 158.972 482.014 155.959C485.533 152.734 488.612 151.525 497.344 149.939L501.344 149.212L497.861 147.746C492.468 145.476 489.286 142.86 486.135 138.103L483.241 133.733L479.945 143.467ZM508.344 146.95L504.344 149.414L508.594 149.445C512.469 149.473 512.844 149.255 512.844 146.976C512.844 145.601 512.732 144.478 512.594 144.481C512.456 144.484 510.544 145.595 508.344 146.95ZM494.898 159.567C492.453 160.046 489.842 161.049 489.096 161.794C487.955 162.936 488.382 163.73 491.794 166.813C496.769 171.307 502.222 171.867 505.552 168.226C508.225 165.302 510.939 159.904 510.137 159.103C509.272 158.238 500.28 158.512 494.898 159.567Z"/>
</mask>
<path fill-rule="evenodd" clip-rule="evenodd" d="M23.1145 0.594889C17.1465 1.99289 8.72151 9.93889 4.86751 17.8039C-8.41049 44.9069 6.78151 122.075 34.6285 168.976C39.0415 176.408 43.6965 182.476 44.9845 182.476C45.5195 182.476 44.7655 180.564 43.3105 178.226C39.0725 171.421 28.4165 148.806 24.5805 138.476C19.7445 125.452 14.4155 105.72 11.2125 88.9759C8.94751 77.1379 8.51951 72.1189 8.43851 56.4759C8.35251 39.7739 8.56851 37.2609 10.6555 30.6159C15.0805 16.5299 27.5825 8.38489 38.4415 12.5129C40.1245 13.1529 41.5255 13.1939 42.1005 12.6189C43.3875 11.3319 39.5455 2.92189 37.0625 1.59289C33.9975 -0.0471121 27.7615 -0.493111 23.1145 0.594889ZM426.483 8.49889C415.596 11.2469 406.026 16.5389 398.725 23.8499C392.778 29.8039 386.846 39.7929 386.845 43.8569C386.844 45.1669 385.6 44.1749 382.745 40.5889C380.49 37.7569 377.822 34.9989 376.815 34.4609C375.155 33.5719 375.067 33.7659 375.867 36.5559C376.563 38.9819 375.614 44.0979 371.372 60.8029C362.795 94.5789 362.401 96.9789 362.371 115.476C362.342 133.395 362.853 136.544 365.44 134.396C368.056 132.225 373.673 120.091 376.367 110.796C377.763 105.98 379.755 101.125 380.794 100.008C381.832 98.8899 382.986 96.3309 383.357 94.3199C383.909 91.3269 383.628 90.2609 381.811 88.4439L379.592 86.2249L383.275 72.6009C385.301 65.1069 387.205 58.1339 387.507 57.1049C387.939 55.6299 388.457 56.1289 389.947 59.4569C392.018 64.0839 397.507 71.4759 398.872 71.4759C399.345 71.4759 398.761 69.3379 397.574 66.7259C394.473 59.8979 394.532 49.6229 397.712 43.1639C400.969 36.5489 408.933 29.0129 416.461 25.4199C427.425 20.1879 436.719 18.2889 451.578 18.2449C463.699 18.2099 465.236 18.4159 469.828 20.6879C475.751 23.6199 476.251 22.6759 472.594 15.4609C468.879 8.13189 465.87 7.02789 448.844 6.75089C437.121 6.55989 432.839 6.89489 426.483 8.49889ZM106.844 10.5959C103.819 11.0819 98.0865 13.0769 94.1055 15.0269C80.6705 21.6089 64.8335 40.1929 57.5835 57.8809L54.3435 65.7869L54.0545 59.8809C53.8655 56.0069 54.6125 50.7199 56.2275 44.5089C58.4915 35.8019 58.5715 34.7579 57.2245 31.5089C55.8555 28.2069 48.7555 20.4759 47.0915 20.4759C46.6805 20.4759 46.3005 21.7129 46.2475 23.2259C46.1955 24.7389 45.1825 29.5349 43.9975 33.8859C39.8465 49.1289 41.3925 76.0899 48.0075 103.789L51.1565 116.976L53.9715 103.671C60.7575 71.6059 70.5245 50.6139 85.5455 35.8139C99.7475 21.8199 119.108 18.0019 135.008 26.0589C140.211 28.6949 141.147 28.2419 140.207 23.5429C138.495 14.9819 121.227 8.28089 106.844 10.5959ZM346.432 13.5009C341.186 18.3369 340.881 19.0589 336.298 37.4759C331.329 57.4419 327.904 74.6069 327.169 83.2259C326.829 87.2129 326.303 90.4759 326.001 90.4759C325.699 90.4759 324.171 89.2469 322.603 87.7459L319.753 85.0149L321.32 88.7659C322.718 92.1139 322.729 93.1339 321.419 98.2469C317.947 111.803 317.08 131.004 319.746 135.318C320.705 136.869 322.073 134.941 327.1 124.959C332.127 114.977 333.761 108.638 334.9 94.6919C336.386 76.4969 345.968 33.0889 349.941 26.5549C353.8 20.2089 361.111 20.0119 367.82 26.0729C370.073 28.1089 371.939 29.1289 372.311 28.5279C373.455 26.6759 369.255 19.0569 364.952 15.1809C357.158 8.16089 352.667 7.75289 346.432 13.5009ZM478.503 31.7599C479.268 36.4779 477.387 42.3779 473.69 46.8549C470.4 50.8369 462.068 55.4489 458.129 55.4659C455.685 55.4769 453.826 58.1389 454.632 60.4759C454.916 61.3009 456.722 63.4719 458.645 65.2989C461.939 68.4299 462.436 68.5849 467.242 67.9769C482.465 66.0489 493.345 53.7669 489.929 42.3649C488.73 38.3649 483.11 31.2249 479.742 29.4219C478.172 28.5819 478.03 28.8499 478.503 31.7599ZM144.064 39.9439C142.035 47.5279 136.734 48.9679 125.611 44.9569C119.681 42.8179 117.378 43.3989 110.69 48.7179L105.344 52.9709L110.877 53.5679C113.92 53.8969 118.239 55.2189 120.476 56.5069C124.464 58.8019 124.614 58.8129 128.24 57.0919C132.175 55.2249 136.014 55.5259 141.044 58.0959C145.318 60.2799 149.448 59.8019 152.888 56.7259C155.4 54.4799 155.975 53.1799 156.023 49.6309C156.076 45.7469 155.571 44.7669 151.251 40.3809C148.593 37.6829 146.158 35.4759 145.839 35.4759C145.52 35.4759 144.721 37.4869 144.064 39.9439ZM444.19 36.5119C431.145 38.8399 420.237 45.7209 417.777 53.1749C414.149 64.1699 421.676 75.2699 435.982 80.0219C441.856 81.9729 443.844 81.4469 443.844 77.9419C443.844 73.5579 442.072 71.6669 435.836 69.3929C431.439 67.7899 429.844 66.7119 429.844 65.3449C429.844 62.5659 436.572 55.6469 441.901 52.9469C444.477 51.6419 446.813 49.6989 447.092 48.6309C447.443 47.2889 449.327 46.1869 453.186 45.0649C459.838 43.1309 464.951 39.2319 463.186 37.4379C461.662 35.8879 450.688 35.3529 444.19 36.5119ZM93.3765 73.7259C79.9665 101.116 72.9125 131.561 71.1925 169.464C70.8555 176.896 70.0015 184.403 69.2945 186.148C67.5215 190.529 63.7705 192.774 58.9885 192.318C55.2555 191.962 55.1595 192.028 56.4735 194.034C57.2245 195.181 60.1515 198 62.9765 200.298C68.8275 205.057 72.4655 205.614 77.5325 202.524C81.4645 200.126 82.8265 195.761 82.8485 185.476C82.8755 172.875 86.8915 139.862 89.4405 131.279C89.8485 129.907 90.6315 130.342 93.5345 133.555C95.5085 135.741 97.2755 137.378 97.4605 137.193C97.6445 137.008 96.7965 134.409 95.5755 131.416C93.5305 126.403 93.3565 124.366 93.3655 105.476C93.3765 81.9509 94.1215 78.7419 100.254 75.8179C103.181 74.4219 104.42 74.3319 107.605 75.2859C112.794 76.8409 119.057 82.4049 121.356 87.5029C123.205 91.6019 123.206 91.9009 121.405 100.338C119.238 110.489 118.04 132.476 119.653 132.476C120.234 132.476 120.998 131.565 121.352 130.451C121.705 129.337 123.584 126.882 125.527 124.995C130.864 119.812 134.021 110.257 133.233 101.674C132.169 90.0929 135.608 82.7499 144.22 78.2179C147.479 76.5019 150.265 76.0119 157.502 75.8779C162.538 75.7839 167.151 75.4039 167.752 75.0329C169.494 73.9559 169.022 71.0449 166.702 68.5539C161.161 62.6059 149.671 61.6879 140.251 66.4389L134.377 69.4019L131.61 66.7519L128.844 64.1019V67.2659C128.844 77.2859 107.838 74.4309 102.844 63.7329C102.019 61.9649 101.011 60.5099 100.604 60.4979C100.197 60.4859 96.9435 66.4389 93.3765 73.7259ZM180.344 63.6709C176.815 65.6729 172.045 71.3379 170.857 74.9359C169.892 77.8609 169.984 78.9049 171.424 81.3419C173.525 84.8989 172.722 87.4759 169.51 87.4759C166.094 87.4759 162.187 90.9069 160.793 95.1289C159.462 99.1649 160.023 106.519 162.029 111.315L163.344 114.46L168.344 112.127C171.094 110.844 174.019 108.982 174.844 107.988C175.804 106.833 176.748 101.983 177.465 94.5279C178.72 81.4939 180.311 77.3529 184.78 75.5019C189.11 73.7089 193.852 74.9349 198.729 79.1099C201.045 81.0919 203.208 82.4449 203.536 82.1169C204.916 80.7369 200.449 72.3659 196.284 68.5269C189.894 62.6379 184.866 61.1059 180.344 63.6709ZM212.752 67.2259C208.33 71.4739 207.658 72.7059 206.379 78.8909C205.343 83.9079 205.242 86.3499 206.01 87.7869C207.173 89.9589 206.779 94.7869 204.445 106.976C202.859 115.263 202.512 128.118 203.758 132.476C204.401 134.728 204.693 134.39 206.705 129.062C210.337 119.445 212.983 106.734 213.857 94.7119C214.444 86.6419 215.211 82.5329 216.56 80.2219C220.766 73.0219 227.512 72.7909 235.23 79.5849C239.327 83.1909 239.844 83.4079 239.844 81.5209C239.844 76.2569 231.51 65.7869 225.529 63.5359C220.297 61.5659 217.931 62.2499 212.752 67.2259ZM479.909 66.0369C473.995 71.3789 473.191 73.4689 471.845 86.9879C470.27 102.796 463.35 124.153 454.065 141.861C448.343 152.772 439.422 157.464 429.849 154.596C426.339 153.544 426.021 153.137 425.639 149.217C424.731 139.897 429.226 127.046 436.267 118.831C440.65 113.718 449.869 107.476 453.04 107.476C460.051 107.476 461.968 100.853 456.594 95.1999C453.628 92.0799 448.909 88.8379 448.508 89.6449C446.897 92.8899 445.647 94.1189 443.24 94.8219C428.963 98.9899 417.618 111.78 414.363 127.379C410.211 147.275 425.868 169.945 441.707 166.974C454.49 164.576 461.039 155.543 472.88 123.976C477.451 111.793 478.316 108.289 479.547 96.9759C480.35 89.5989 481.692 82.4679 482.652 80.4899C486.163 73.2529 493.115 72.7469 501.466 79.1219L506.135 82.6859L505.468 79.3469C503.916 71.5879 495.735 63.8079 488.044 62.7759C484.534 62.3049 483.643 62.6629 479.909 66.0369ZM292.194 66.9229C288.724 70.1959 288.401 70.2989 285.797 68.9519C281.551 66.7559 275.691 66.1709 270.892 67.4629C265.248 68.9829 256.457 77.2759 251.899 85.3779L248.515 91.3939L245.145 88.4349C243.291 86.8079 241.588 85.4759 241.36 85.4759C241.132 85.4759 241.575 86.9799 242.343 88.8189C243.538 91.6789 243.538 93.0259 242.347 98.1319C239.416 110.697 238.595 127.223 240.449 136.314C240.813 138.095 241.235 138.396 242.221 137.578C244.668 135.547 250.789 120.964 253.362 111.033C257.946 93.3399 265.729 81.9299 274.9 79.4609C279.879 78.1199 286.11 78.9549 290.651 81.5709C292.47 82.6189 294.103 83.4759 294.28 83.4759C294.457 83.4759 295.167 82.1089 295.859 80.4379C297.405 76.7059 299.561 75.4759 304.556 75.4759C308.501 75.4759 311.284 76.8849 316.094 81.3159L318.844 83.8499V81.3589C318.844 77.7419 313.598 70.0349 308.742 66.5169C302.675 62.1219 297.14 62.2579 292.194 66.9229ZM513.753 67.3319C510.106 70.7669 509.581 71.8579 508.938 77.3129C508.54 80.6819 507.945 83.7079 507.615 84.0379C507.285 84.3689 507.668 86.2069 508.469 88.1219C509.776 91.2519 509.725 92.5369 507.961 100.791C505.156 113.914 504.512 120.562 505.318 128.09C506.087 135.269 506.684 135.33 509.099 128.476C513.684 115.459 516.842 100.127 516.843 90.8749C516.844 79.6949 519.09 75.4759 525.042 75.4759C527.755 75.4759 534.353 78.7759 537.589 81.7519C540.386 84.3239 541.268 83.5469 540.456 79.2229C539.324 73.1849 527.087 63.4759 520.611 63.4759C518.779 63.4759 516.467 64.7759 513.753 67.3319ZM627.849 65.2199C619.231 68.2609 609.844 80.1189 609.844 87.9639C609.844 89.3369 609.545 89.4729 608.477 88.5859C607.337 87.6399 607.182 88.5749 607.549 94.2139C607.918 99.8809 607.614 101.703 605.667 105.468C602.899 110.821 595.334 116.799 589.13 118.536L584.718 119.771L585.351 123.874C587.031 134.762 590.413 139.132 596.409 138.159C601.398 137.349 604.748 134.949 606.398 131.002C607.16 129.176 609.531 126.174 611.666 124.329C614.283 122.068 616.256 119.069 617.721 115.122C619.642 109.945 619.769 108.584 618.823 103.368C615.625 85.7319 625.804 74.9819 645.041 75.6769C654.122 76.0039 655.726 75.1049 653.695 70.8239C650.621 64.3479 638.047 61.6219 627.849 65.2199ZM578.13 66.9269C568.219 70.0239 558.292 78.7119 553.214 88.7329L550.757 93.5809L547.55 90.8779L544.344 88.1749L543.697 101.576C543.023 115.528 540.319 143.731 539.245 148.009C538.477 151.07 539.595 151.118 543.909 148.211C551.318 143.218 556.844 130.031 556.844 117.343C556.844 100.828 563.895 87.6039 575.901 81.6049C586.089 76.5139 593.413 76.3379 600.31 81.0179L603.844 83.4159V80.8959C603.844 75.5889 599.106 69.7369 592.612 67.0239C588.185 65.1739 583.832 65.1449 578.13 66.9269ZM404.776 84.6409C402.477 86.3059 397.789 90.5169 394.359 93.9979C388.822 99.6179 388.046 100.899 387.448 105.406C386.677 111.215 380.802 128.672 377.346 135.423C376.065 137.927 373.29 141.637 371.18 143.666C365.095 149.52 359.475 150.888 353.727 147.915C350.781 146.392 350.734 146.404 351.815 148.423C353.271 151.145 362.446 158.384 366.721 160.186C370.875 161.936 376.764 161.113 380.367 158.279C381.787 157.162 383.065 156.412 383.208 156.612C388.797 164.461 391.08 167.372 392.915 168.994C395.008 170.844 394.98 170.67 392.505 166.396C380.848 146.269 384.028 120.685 400.234 104.218C405.862 98.4989 414.312 92.5139 420.083 90.1599L423.242 88.8709L416.098 85.2419L408.954 81.6129L404.776 84.6409ZM124.527 86.6639C124.208 87.4609 123.971 87.2239 123.923 86.0589C123.88 85.0049 124.116 84.4149 124.448 84.7469C124.78 85.0789 124.816 85.9419 124.527 86.6639ZM657.929 85.8739C657.307 86.6219 655.446 87.5059 653.791 87.8369C645.572 89.4799 642.744 99.8119 647.438 111.046L648.809 114.329L652.893 112.725C655.202 111.818 657.562 110.003 658.325 108.548C660.129 105.106 665.795 99.8619 668.635 99.0059C670.376 98.4809 670.773 97.8299 670.286 96.2959C669.933 95.1849 669.534 93.2659 669.398 92.0309C669.033 88.7039 667.985 87.4759 665.507 87.4759C664.287 87.4759 662.337 86.8089 661.174 85.9939C659.396 84.7489 658.878 84.7299 657.929 85.8739ZM592.945 97.0129C590.094 100.261 586.844 106.445 586.844 108.624C586.844 110.314 592.73 106.492 595.284 103.144C598.483 98.9489 599.779 93.4759 597.573 93.4759C596.736 93.4759 594.654 95.0679 592.945 97.0129ZM287.613 96.2259C282.049 102.544 277.448 117.478 278.009 127.401C278.543 136.866 279.977 138.163 284.354 133.145C289.993 126.679 292.619 118.529 292.622 107.476C292.624 98.4989 291.801 94.4759 289.964 94.4759C289.518 94.4759 288.461 95.2629 287.613 96.2259ZM672.464 110.226C670.092 114.785 666.043 117.863 659.526 120.062L653.344 122.148L653.682 128.252C654.588 144.588 645.2 155.068 628.591 156.26C620.13 156.868 614.3 154.83 609.594 149.621L606.216 145.883L601.281 148.221C591.325 152.935 576.828 149.513 567.58 140.265L563.21 135.895L561.372 141.645C559.644 147.051 554.565 154.709 553.036 154.213C552.655 154.09 550.769 154.957 548.844 156.141C546.919 157.324 543.544 158.773 541.344 159.359C537.578 160.364 537.245 160.764 535.65 166.217C532.58 176.715 526.471 183.501 517.43 186.459C511.687 188.337 501.055 187.19 494.719 184.007C491.885 182.584 489.384 181.602 489.161 181.825C488.938 182.047 491.564 184.77 494.995 187.874C503.761 195.808 510.452 198.884 519.893 199.32C528.139 199.702 532.348 198.481 538.214 194.006C541.834 191.245 547.186 182.07 548.33 176.662C548.82 174.345 549.829 173.041 551.688 172.327C562.083 168.331 568.637 162.768 572.896 154.325C574.103 151.933 575.248 149.8 575.44 149.586C575.633 149.371 577.662 150.885 579.948 152.951C589.222 161.329 602.497 164.515 612.406 160.74L617.466 158.811L621.406 162.227C626.804 166.909 631.014 168.475 638.216 168.481C646.037 168.487 652.983 165.985 658.411 161.207C663.857 156.414 666.147 150.04 665.679 140.978C665.349 134.599 665.387 134.489 668.344 133.311C673.604 131.215 679.834 126.451 682.279 122.656C686.272 116.457 686.298 115.101 682.508 111.083C678.244 106.562 674.535 106.245 672.464 110.226ZM172.344 120.499L168.344 122.36L168.2 130.384C167.964 143.533 163.508 150.136 151.892 154.55C142.457 158.135 131.666 156.748 125.656 151.177C123.416 149.102 122.281 148.785 118.582 149.202C115.641 149.534 113.139 149.163 111.059 148.087C105.993 145.468 106.116 146.176 111.709 151.839C118.665 158.882 124.624 161.874 130.402 161.222C133.799 160.839 135.135 161.14 136.436 162.578C141.698 168.392 154.261 170.209 163.892 166.55C174.837 162.391 179.382 156.229 180.524 144.002C180.859 140.413 181.502 137.476 181.953 137.476C182.404 137.476 181.904 135.449 180.842 132.972C179.781 130.495 178.614 126.22 178.249 123.472C177.885 120.724 177.307 118.512 176.965 118.557C176.624 118.601 174.544 119.475 172.344 120.499ZM137.232 129.997C134.33 132.899 134.379 136.109 137.353 138.074C140.029 139.841 144.211 137.857 144.677 134.599C145.662 127.71 141.866 125.363 137.232 129.997ZM622.424 129.592C619.092 132.213 619.215 136.37 622.677 138.087C627.666 140.561 631.416 137.044 630.275 130.962C629.49 126.775 626.638 126.277 622.424 129.592ZM335.083 133.265C330.931 143.067 323.081 150.476 316.85 150.476C311.734 150.476 300.299 142.129 297.085 136.048C296.162 134.303 295.872 134.5 294.014 138.143C291.536 143.001 285.813 148.227 282.076 149.045C280.573 149.374 278.766 149.822 278.059 150.041C277.353 150.261 274.488 149.95 271.693 149.35C265.966 148.122 259.849 143.315 257.84 138.465C257.159 136.821 256.318 135.476 255.971 135.476C255.624 135.476 254.266 137.502 252.953 139.977C251.639 142.453 248.612 146.278 246.227 148.477C242.575 151.844 241.213 152.475 237.616 152.472C230.909 152.466 222.513 146.577 218.732 139.226C217.671 137.164 216.63 135.476 216.419 135.476C216.207 135.476 214.867 137.468 213.44 139.903C208.365 148.561 201.854 151.247 194.822 147.581C190.998 145.588 190.827 145.576 191.788 147.371C193.399 150.382 201.602 157.18 206.465 159.534C212.974 162.686 217.095 161.64 223.055 155.324L227.766 150.332L232.555 154.972C245.669 167.679 254.603 167.732 263.266 155.154L266.915 149.854L272.13 154.687C283.476 165.203 295.504 164.5 304.427 152.8L307.595 148.647L311.814 152.946C316.412 157.63 325.001 162.476 328.707 162.476C334.48 162.476 341.955 156.174 346.277 147.664C347.951 144.368 347.944 144.336 344.891 141.213C343.204 139.487 340.755 135.933 339.451 133.314L337.078 128.554L335.083 133.265ZM479.945 143.467C474.309 160.116 465.151 174.198 456.344 179.755C444.136 187.457 423.371 189.118 411.19 183.367C408.524 182.108 405.894 180.885 405.344 180.649C403.328 179.785 411.485 187.74 416.125 191.164C423.682 196.74 429.744 198.597 440.257 198.556C459.062 198.482 472.29 191.933 481.247 178.262C482.939 175.681 482.922 175.5 480.669 172.453C478.966 170.15 478.344 167.973 478.344 164.315C478.344 159.843 478.726 158.972 482.014 155.959C485.533 152.734 488.612 151.525 497.344 149.939L501.344 149.212L497.861 147.746C492.468 145.476 489.286 142.86 486.135 138.103L483.241 133.733L479.945 143.467ZM508.344 146.95L504.344 149.414L508.594 149.445C512.469 149.473 512.844 149.255 512.844 146.976C512.844 145.601 512.732 144.478 512.594 144.481C512.456 144.484 510.544 145.595 508.344 146.95ZM494.898 159.567C492.453 160.046 489.842 161.049 489.096 161.794C487.955 162.936 488.382 163.73 491.794 166.813C496.769 171.307 502.222 171.867 505.552 168.226C508.225 165.302 510.939 159.904 510.137 159.103C509.272 158.238 500.28 158.512 494.898 159.567Z" fill="black"/>
<path fill-rule="evenodd" clip-rule="evenodd" d="M23.1145 0.594889C17.1465 1.99289 8.72151 9.93889 4.86751 17.8039C-8.41049 44.9069 6.78151 122.075 34.6285 168.976C39.0415 176.408 43.6965 182.476 44.9845 182.476C45.5195 182.476 44.7655 180.564 43.3105 178.226C39.0725 171.421 28.4165 148.806 24.5805 138.476C19.7445 125.452 14.4155 105.72 11.2125 88.9759C8.94751 77.1379 8.51951 72.1189 8.43851 56.4759C8.35251 39.7739 8.56851 37.2609 10.6555 30.6159C15.0805 16.5299 27.5825 8.38489 38.4415 12.5129C40.1245 13.1529 41.5255 13.1939 42.1005 12.6189C43.3875 11.3319 39.5455 2.92189 37.0625 1.59289C33.9975 -0.0471121 27.7615 -0.493111 23.1145 0.594889ZM426.483 8.49889C415.596 11.2469 406.026 16.5389 398.725 23.8499C392.778 29.8039 386.846 39.7929 386.845 43.8569C386.844 45.1669 385.6 44.1749 382.745 40.5889C380.49 37.7569 377.822 34.9989 376.815 34.4609C375.155 33.5719 375.067 33.7659 375.867 36.5559C376.563 38.9819 375.614 44.0979 371.372 60.8029C362.795 94.5789 362.401 96.9789 362.371 115.476C362.342 133.395 362.853 136.544 365.44 134.396C368.056 132.225 373.673 120.091 376.367 110.796C377.763 105.98 379.755 101.125 380.794 100.008C381.832 98.8899 382.986 96.3309 383.357 94.3199C383.909 91.3269 383.628 90.2609 381.811 88.4439L379.592 86.2249L383.275 72.6009C385.301 65.1069 387.205 58.1339 387.507 57.1049C387.939 55.6299 388.457 56.1289 389.947 59.4569C392.018 64.0839 397.507 71.4759 398.872 71.4759C399.345 71.4759 398.761 69.3379 397.574 66.7259C394.473 59.8979 394.532 49.6229 397.712 43.1639C400.969 36.5489 408.933 29.0129 416.461 25.4199C427.425 20.1879 436.719 18.2889 451.578 18.2449C463.699 18.2099 465.236 18.4159 469.828 20.6879C475.751 23.6199 476.251 22.6759 472.594 15.4609C468.879 8.13189 465.87 7.02789 448.844 6.75089C437.121 6.55989 432.839 6.89489 426.483 8.49889ZM106.844 10.5959C103.819 11.0819 98.0865 13.0769 94.1055 15.0269C80.6705 21.6089 64.8335 40.1929 57.5835 57.8809L54.3435 65.7869L54.0545 59.8809C53.8655 56.0069 54.6125 50.7199 56.2275 44.5089C58.4915 35.8019 58.5715 34.7579 57.2245 31.5089C55.8555 28.2069 48.7555 20.4759 47.0915 20.4759C46.6805 20.4759 46.3005 21.7129 46.2475 23.2259C46.1955 24.7389 45.1825 29.5349 43.9975 33.8859C39.8465 49.1289 41.3925 76.0899 48.0075 103.789L51.1565 116.976L53.9715 103.671C60.7575 71.6059 70.5245 50.6139 85.5455 35.8139C99.7475 21.8199 119.108 18.0019 135.008 26.0589C140.211 28.6949 141.147 28.2419 140.207 23.5429C138.495 14.9819 121.227 8.28089 106.844 10.5959ZM346.432 13.5009C341.186 18.3369 340.881 19.0589 336.298 37.4759C331.329 57.4419 327.904 74.6069 327.169 83.2259C326.829 87.2129 326.303 90.4759 326.001 90.4759C325.699 90.4759 324.171 89.2469 322.603 87.7459L319.753 85.0149L321.32 88.7659C322.718 92.1139 322.729 93.1339 321.419 98.2469C317.947 111.803 317.08 131.004 319.746 135.318C320.705 136.869 322.073 134.941 327.1 124.959C332.127 114.977 333.761 108.638 334.9 94.6919C336.386 76.4969 345.968 33.0889 349.941 26.5549C353.8 20.2089 361.111 20.0119 367.82 26.0729C370.073 28.1089 371.939 29.1289 372.311 28.5279C373.455 26.6759 369.255 19.0569 364.952 15.1809C357.158 8.16089 352.667 7.75289 346.432 13.5009ZM478.503 31.7599C479.268 36.4779 477.387 42.3779 473.69 46.8549C470.4 50.8369 462.068 55.4489 458.129 55.4659C455.685 55.4769 453.826 58.1389 454.632 60.4759C454.916 61.3009 456.722 63.4719 458.645 65.2989C461.939 68.4299 462.436 68.5849 467.242 67.9769C482.465 66.0489 493.345 53.7669 489.929 42.3649C488.73 38.3649 483.11 31.2249 479.742 29.4219C478.172 28.5819 478.03 28.8499 478.503 31.7599ZM144.064 39.9439C142.035 47.5279 136.734 48.9679 125.611 44.9569C119.681 42.8179 117.378 43.3989 110.69 48.7179L105.344 52.9709L110.877 53.5679C113.92 53.8969 118.239 55.2189 120.476 56.5069C124.464 58.8019 124.614 58.8129 128.24 57.0919C132.175 55.2249 136.014 55.5259 141.044 58.0959C145.318 60.2799 149.448 59.8019 152.888 56.7259C155.4 54.4799 155.975 53.1799 156.023 49.6309C156.076 45.7469 155.571 44.7669 151.251 40.3809C148.593 37.6829 146.158 35.4759 145.839 35.4759C145.52 35.4759 144.721 37.4869 144.064 39.9439ZM444.19 36.5119C431.145 38.8399 420.237 45.7209 417.777 53.1749C414.149 64.1699 421.676 75.2699 435.982 80.0219C441.856 81.9729 443.844 81.4469 443.844 77.9419C443.844 73.5579 442.072 71.6669 435.836 69.3929C431.439 67.7899 429.844 66.7119 429.844 65.3449C429.844 62.5659 436.572 55.6469 441.901 52.9469C444.477 51.6419 446.813 49.6989 447.092 48.6309C447.443 47.2889 449.327 46.1869 453.186 45.0649C459.838 43.1309 464.951 39.2319 463.186 37.4379C461.662 35.8879 450.688 35.3529 444.19 36.5119ZM93.3765 73.7259C79.9665 101.116 72.9125 131.561 71.1925 169.464C70.8555 176.896 70.0015 184.403 69.2945 186.148C67.5215 190.529 63.7705 192.774 58.9885 192.318C55.2555 191.962 55.1595 192.028 56.4735 194.034C57.2245 195.181 60.1515 198 62.9765 200.298C68.8275 205.057 72.4655 205.614 77.5325 202.524C81.4645 200.126 82.8265 195.761 82.8485 185.476C82.8755 172.875 86.8915 139.862 89.4405 131.279C89.8485 129.907 90.6315 130.342 93.5345 133.555C95.5085 135.741 97.2755 137.378 97.4605 137.193C97.6445 137.008 96.7965 134.409 95.5755 131.416C93.5305 126.403 93.3565 124.366 93.3655 105.476C93.3765 81.9509 94.1215 78.7419 100.254 75.8179C103.181 74.4219 104.42 74.3319 107.605 75.2859C112.794 76.8409 119.057 82.4049 121.356 87.5029C123.205 91.6019 123.206 91.9009 121.405 100.338C119.238 110.489 118.04 132.476 119.653 132.476C120.234 132.476 120.998 131.565 121.352 130.451C121.705 129.337 123.584 126.882 125.527 124.995C130.864 119.812 134.021 110.257 133.233 101.674C132.169 90.0929 135.608 82.7499 144.22 78.2179C147.479 76.5019 150.265 76.0119 157.502 75.8779C162.538 75.7839 167.151 75.4039 167.752 75.0329C169.494 73.9559 169.022 71.0449 166.702 68.5539C161.161 62.6059 149.671 61.6879 140.251 66.4389L134.377 69.4019L131.61 66.7519L128.844 64.1019V67.2659C128.844 77.2859 107.838 74.4309 102.844 63.7329C102.019 61.9649 101.011 60.5099 100.604 60.4979C100.197 60.4859 96.9435 66.4389 93.3765 73.7259ZM180.344 63.6709C176.815 65.6729 172.045 71.3379 170.857 74.9359C169.892 77.8609 169.984 78.9049 171.424 81.3419C173.525 84.8989 172.722 87.4759 169.51 87.4759C166.094 87.4759 162.187 90.9069 160.793 95.1289C159.462 99.1649 160.023 106.519 162.029 111.315L163.344 114.46L168.344 112.127C171.094 110.844 174.019 108.982 174.844 107.988C175.804 106.833 176.748 101.983 177.465 94.5279C178.72 81.4939 180.311 77.3529 184.78 75.5019C189.11 73.7089 193.852 74.9349 198.729 79.1099C201.045 81.0919 203.208 82.4449 203.536 82.1169C204.916 80.7369 200.449 72.3659 196.284 68.5269C189.894 62.6379 184.866 61.1059 180.344 63.6709ZM212.752 67.2259C208.33 71.4739 207.658 72.7059 206.379 78.8909C205.343 83.9079 205.242 86.3499 206.01 87.7869C207.173 89.9589 206.779 94.7869 204.445 106.976C202.859 115.263 202.512 128.118 203.758 132.476C204.401 134.728 204.693 134.39 206.705 129.062C210.337 119.445 212.983 106.734 213.857 94.7119C214.444 86.6419 215.211 82.5329 216.56 80.2219C220.766 73.0219 227.512 72.7909 235.23 79.5849C239.327 83.1909 239.844 83.4079 239.844 81.5209C239.844 76.2569 231.51 65.7869 225.529 63.5359C220.297 61.5659 217.931 62.2499 212.752 67.2259ZM479.909 66.0369C473.995 71.3789 473.191 73.4689 471.845 86.9879C470.27 102.796 463.35 124.153 454.065 141.861C448.343 152.772 439.422 157.464 429.849 154.596C426.339 153.544 426.021 153.137 425.639 149.217C424.731 139.897 429.226 127.046 436.267 118.831C440.65 113.718 449.869 107.476 453.04 107.476C460.051 107.476 461.968 100.853 456.594 95.1999C453.628 92.0799 448.909 88.8379 448.508 89.6449C446.897 92.8899 445.647 94.1189 443.24 94.8219C428.963 98.9899 417.618 111.78 414.363 127.379C410.211 147.275 425.868 169.945 441.707 166.974C454.49 164.576 461.039 155.543 472.88 123.976C477.451 111.793 478.316 108.289 479.547 96.9759C480.35 89.5989 481.692 82.4679 482.652 80.4899C486.163 73.2529 493.115 72.7469 501.466 79.1219L506.135 82.6859L505.468 79.3469C503.916 71.5879 495.735 63.8079 488.044 62.7759C484.534 62.3049 483.643 62.6629 479.909 66.0369ZM292.194 66.9229C288.724 70.1959 288.401 70.2989 285.797 68.9519C281.551 66.7559 275.691 66.1709 270.892 67.4629C265.248 68.9829 256.457 77.2759 251.899 85.3779L248.515 91.3939L245.145 88.4349C243.291 86.8079 241.588 85.4759 241.36 85.4759C241.132 85.4759 241.575 86.9799 242.343 88.8189C243.538 91.6789 243.538 93.0259 242.347 98.1319C239.416 110.697 238.595 127.223 240.449 136.314C240.813 138.095 241.235 138.396 242.221 137.578C244.668 135.547 250.789 120.964 253.362 111.033C257.946 93.3399 265.729 81.9299 274.9 79.4609C279.879 78.1199 286.11 78.9549 290.651 81.5709C292.47 82.6189 294.103 83.4759 294.28 83.4759C294.457 83.4759 295.167 82.1089 295.859 80.4379C297.405 76.7059 299.561 75.4759 304.556 75.4759C308.501 75.4759 311.284 76.8849 316.094 81.3159L318.844 83.8499V81.3589C318.844 77.7419 313.598 70.0349 308.742 66.5169C302.675 62.1219 297.14 62.2579 292.194 66.9229ZM513.753 67.3319C510.106 70.7669 509.581 71.8579 508.938 77.3129C508.54 80.6819 507.945 83.7079 507.615 84.0379C507.285 84.3689 507.668 86.2069 508.469 88.1219C509.776 91.2519 509.725 92.5369 507.961 100.791C505.156 113.914 504.512 120.562 505.318 128.09C506.087 135.269 506.684 135.33 509.099 128.476C513.684 115.459 516.842 100.127 516.843 90.8749C516.844 79.6949 519.09 75.4759 525.042 75.4759C527.755 75.4759 534.353 78.7759 537.589 81.7519C540.386 84.3239 541.268 83.5469 540.456 79.2229C539.324 73.1849 527.087 63.4759 520.611 63.4759C518.779 63.4759 516.467 64.7759 513.753 67.3319ZM627.849 65.2199C619.231 68.2609 609.844 80.1189 609.844 87.9639C609.844 89.3369 609.545 89.4729 608.477 88.5859C607.337 87.6399 607.182 88.5749 607.549 94.2139C607.918 99.8809 607.614 101.703 605.667 105.468C602.899 110.821 595.334 116.799 589.13 118.536L584.718 119.771L585.351 123.874C587.031 134.762 590.413 139.132 596.409 138.159C601.398 137.349 604.748 134.949 606.398 131.002C607.16 129.176 609.531 126.174 611.666 124.329C614.283 122.068 616.256 119.069 617.721 115.122C619.642 109.945 619.769 108.584 618.823 103.368C615.625 85.7319 625.804 74.9819 645.041 75.6769C654.122 76.0039 655.726 75.1049 653.695 70.8239C650.621 64.3479 638.047 61.6219 627.849 65.2199ZM578.13 66.9269C568.219 70.0239 558.292 78.7119 553.214 88.7329L550.757 93.5809L547.55 90.8779L544.344 88.1749L543.697 101.576C543.023 115.528 540.319 143.731 539.245 148.009C538.477 151.07 539.595 151.118 543.909 148.211C551.318 143.218 556.844 130.031 556.844 117.343C556.844 100.828 563.895 87.6039 575.901 81.6049C586.089 76.5139 593.413 76.3379 600.31 81.0179L603.844 83.4159V80.8959C603.844 75.5889 599.106 69.7369 592.612 67.0239C588.185 65.1739 583.832 65.1449 578.13 66.9269ZM404.776 84.6409C402.477 86.3059 397.789 90.5169 394.359 93.9979C388.822 99.6179 388.046 100.899 387.448 105.406C386.677 111.215 380.802 128.672 377.346 135.423C376.065 137.927 373.29 141.637 371.18 143.666C365.095 149.52 359.475 150.888 353.727 147.915C350.781 146.392 350.734 146.404 351.815 148.423C353.271 151.145 362.446 158.384 366.721 160.186C370.875 161.936 376.764 161.113 380.367 158.279C381.787 157.162 383.065 156.412 383.208 156.612C388.797 164.461 391.08 167.372 392.915 168.994C395.008 170.844 394.98 170.67 392.505 166.396C380.848 146.269 384.028 120.685 400.234 104.218C405.862 98.4989 414.312 92.5139 420.083 90.1599L423.242 88.8709L416.098 85.2419L408.954 81.6129L404.776 84.6409ZM124.527 86.6639C124.208 87.4609 123.971 87.2239 123.923 86.0589C123.88 85.0049 124.116 84.4149 124.448 84.7469C124.78 85.0789 124.816 85.9419 124.527 86.6639ZM657.929 85.8739C657.307 86.6219 655.446 87.5059 653.791 87.8369C645.572 89.4799 642.744 99.8119 647.438 111.046L648.809 114.329L652.893 112.725C655.202 111.818 657.562 110.003 658.325 108.548C660.129 105.106 665.795 99.8619 668.635 99.0059C670.376 98.4809 670.773 97.8299 670.286 96.2959C669.933 95.1849 669.534 93.2659 669.398 92.0309C669.033 88.7039 667.985 87.4759 665.507 87.4759C664.287 87.4759 662.337 86.8089 661.174 85.9939C659.396 84.7489 658.878 84.7299 657.929 85.8739ZM592.945 97.0129C590.094 100.261 586.844 106.445 586.844 108.624C586.844 110.314 592.73 106.492 595.284 103.144C598.483 98.9489 599.779 93.4759 597.573 93.4759C596.736 93.4759 594.654 95.0679 592.945 97.0129ZM287.613 96.2259C282.049 102.544 277.448 117.478 278.009 127.401C278.543 136.866 279.977 138.163 284.354 133.145C289.993 126.679 292.619 118.529 292.622 107.476C292.624 98.4989 291.801 94.4759 289.964 94.4759C289.518 94.4759 288.461 95.2629 287.613 96.2259ZM672.464 110.226C670.092 114.785 666.043 117.863 659.526 120.062L653.344 122.148L653.682 128.252C654.588 144.588 645.2 155.068 628.591 156.26C620.13 156.868 614.3 154.83 609.594 149.621L606.216 145.883L601.281 148.221C591.325 152.935 576.828 149.513 567.58 140.265L563.21 135.895L561.372 141.645C559.644 147.051 554.565 154.709 553.036 154.213C552.655 154.09 550.769 154.957 548.844 156.141C546.919 157.324 543.544 158.773 541.344 159.359C537.578 160.364 537.245 160.764 535.65 166.217C532.58 176.715 526.471 183.501 517.43 186.459C511.687 188.337 501.055 187.19 494.719 184.007C491.885 182.584 489.384 181.602 489.161 181.825C488.938 182.047 491.564 184.77 494.995 187.874C503.761 195.808 510.452 198.884 519.893 199.32C528.139 199.702 532.348 198.481 538.214 194.006C541.834 191.245 547.186 182.07 548.33 176.662C548.82 174.345 549.829 173.041 551.688 172.327C562.083 168.331 568.637 162.768 572.896 154.325C574.103 151.933 575.248 149.8 575.44 149.586C575.633 149.371 577.662 150.885 579.948 152.951C589.222 161.329 602.497 164.515 612.406 160.74L617.466 158.811L621.406 162.227C626.804 166.909 631.014 168.475 638.216 168.481C646.037 168.487 652.983 165.985 658.411 161.207C663.857 156.414 666.147 150.04 665.679 140.978C665.349 134.599 665.387 134.489 668.344 133.311C673.604 131.215 679.834 126.451 682.279 122.656C686.272 116.457 686.298 115.101 682.508 111.083C678.244 106.562 674.535 106.245 672.464 110.226ZM172.344 120.499L168.344 122.36L168.2 130.384C167.964 143.533 163.508 150.136 151.892 154.55C142.457 158.135 131.666 156.748 125.656 151.177C123.416 149.102 122.281 148.785 118.582 149.202C115.641 149.534 113.139 149.163 111.059 148.087C105.993 145.468 106.116 146.176 111.709 151.839C118.665 158.882 124.624 161.874 130.402 161.222C133.799 160.839 135.135 161.14 136.436 162.578C141.698 168.392 154.261 170.209 163.892 166.55C174.837 162.391 179.382 156.229 180.524 144.002C180.859 140.413 181.502 137.476 181.953 137.476C182.404 137.476 181.904 135.449 180.842 132.972C179.781 130.495 178.614 126.22 178.249 123.472C177.885 120.724 177.307 118.512 176.965 118.557C176.624 118.601 174.544 119.475 172.344 120.499ZM137.232 129.997C134.33 132.899 134.379 136.109 137.353 138.074C140.029 139.841 144.211 137.857 144.677 134.599C145.662 127.71 141.866 125.363 137.232 129.997ZM622.424 129.592C619.092 132.213 619.215 136.37 622.677 138.087C627.666 140.561 631.416 137.044 630.275 130.962C629.49 126.775 626.638 126.277 622.424 129.592ZM335.083 133.265C330.931 143.067 323.081 150.476 316.85 150.476C311.734 150.476 300.299 142.129 297.085 136.048C296.162 134.303 295.872 134.5 294.014 138.143C291.536 143.001 285.813 148.227 282.076 149.045C280.573 149.374 278.766 149.822 278.059 150.041C277.353 150.261 274.488 149.95 271.693 149.35C265.966 148.122 259.849 143.315 257.84 138.465C257.159 136.821 256.318 135.476 255.971 135.476C255.624 135.476 254.266 137.502 252.953 139.977C251.639 142.453 248.612 146.278 246.227 148.477C242.575 151.844 241.213 152.475 237.616 152.472C230.909 152.466 222.513 146.577 218.732 139.226C217.671 137.164 216.63 135.476 216.419 135.476C216.207 135.476 214.867 137.468 213.44 139.903C208.365 148.561 201.854 151.247 194.822 147.581C190.998 145.588 190.827 145.576 191.788 147.371C193.399 150.382 201.602 157.18 206.465 159.534C212.974 162.686 217.095 161.64 223.055 155.324L227.766 150.332L232.555 154.972C245.669 167.679 254.603 167.732 263.266 155.154L266.915 149.854L272.13 154.687C283.476 165.203 295.504 164.5 304.427 152.8L307.595 148.647L311.814 152.946C316.412 157.63 325.001 162.476 328.707 162.476C334.48 162.476 341.955 156.174 346.277 147.664C347.951 144.368 347.944 144.336 344.891 141.213C343.204 139.487 340.755 135.933 339.451 133.314L337.078 128.554L335.083 133.265ZM479.945 143.467C474.309 160.116 465.151 174.198 456.344 179.755C444.136 187.457 423.371 189.118 411.19 183.367C408.524 182.108 405.894 180.885 405.344 180.649C403.328 179.785 411.485 187.74 416.125 191.164C423.682 196.74 429.744 198.597 440.257 198.556C459.062 198.482 472.29 191.933 481.247 178.262C482.939 175.681 482.922 175.5 480.669 172.453C478.966 170.15 478.344 167.973 478.344 164.315C478.344 159.843 478.726 158.972 482.014 155.959C485.533 152.734 488.612 151.525 497.344 149.939L501.344 149.212L497.861 147.746C492.468 145.476 489.286 142.86 486.135 138.103L483.241 133.733L479.945 143.467ZM508.344 146.95L504.344 149.414L508.594 149.445C512.469 149.473 512.844 149.255 512.844 146.976C512.844 145.601 512.732 144.478 512.594 144.481C512.456 144.484 510.544 145.595 508.344 146.95ZM494.898 159.567C492.453 160.046 489.842 161.049 489.096 161.794C487.955 162.936 488.382 163.73 491.794 166.813C496.769 171.307 502.222 171.867 505.552 168.226C508.225 165.302 510.939 159.904 510.137 159.103C509.272 158.238 500.28 158.512 494.898 159.567Z" stroke="black" stroke-width="10" mask="url(#path-1-inside-1_66_52)"/>
</g>
<defs>
<filter id="filter0_d_66_52" x="0" y="0" width="694.313" height="212.447" filterUnits="userSpaceOnUse" color-interpolation-filters="sRGB">
<feFlood flood-opacity="0" result="BackgroundImageFix"/>
<feColorMatrix in="SourceAlpha" type="matrix" values="0 0 0 0 0 0 0 0 0 0 0 0 0 0 0 0 0 0 127 0" result="hardAlpha"/>
<feOffset dx="5" dy="4"/>
<feGaussianBlur stdDeviation="2"/>
<feComposite in2="hardAlpha" operator="out"/>
<feColorMatrix type="matrix" values="0 0 0 0 0 0 0 0 0 0 0 0 0 0 0 0 0 0 0.25 0"/>
<feBlend mode="normal" in2="BackgroundImageFix" result="effect1_dropShadow_66_52"/>
<feBlend mode="normal" in="SourceGraphic" in2="effect1_dropShadow_66_52" result="shape"/>
</filter>
</defs>
</svg>
