<svg width="694" height="213" viewBox="0 0 694 213" fill="none" xmlns="http://www.w3.org/2000/svg">
<g filter="url(#filter0_di_76_7)">
<path fill-rule="evenodd" clip-rule="evenodd" d="M27.1145 0.594889C21.1465 1.99289 12.7215 9.93889 8.86751 17.8039C-4.41049 44.9069 10.7815 122.075 38.6285 168.976C43.0415 176.408 47.6965 182.476 48.9845 182.476C49.5195 182.476 48.7655 180.564 47.3105 178.226C43.0725 171.421 32.4165 148.806 28.5805 138.476C23.7445 125.452 18.4155 105.72 15.2125 88.9759C12.9475 77.1379 12.5195 72.1189 12.4385 56.4759C12.3525 39.7739 12.5685 37.2609 14.6555 30.6159C19.0805 16.5299 31.5825 8.38489 42.4415 12.5129C44.1245 13.1529 45.5255 13.1939 46.1005 12.6189C47.3875 11.3319 43.5455 2.92189 41.0625 1.59289C37.9975 -0.0471121 31.7615 -0.493111 27.1145 0.594889ZM430.483 8.49889C419.596 11.2469 410.026 16.5389 402.725 23.8499C396.778 29.8039 390.846 39.7929 390.845 43.8569C390.844 45.1669 389.6 44.1749 386.745 40.5889C384.49 37.7569 381.822 34.9989 380.815 34.4609C379.155 33.5719 379.067 33.7659 379.867 36.5559C380.563 38.9819 379.614 44.0979 375.372 60.8029C366.795 94.5789 366.401 96.9789 366.371 115.476C366.342 133.395 366.853 136.544 369.44 134.396C372.056 132.225 377.673 120.091 380.367 110.796C381.763 105.98 383.755 101.125 384.794 100.008C385.832 98.8899 386.986 96.3309 387.357 94.3199C387.909 91.3269 387.628 90.2609 385.811 88.4439L383.592 86.2249L387.275 72.6009C389.301 65.1069 391.205 58.1339 391.507 57.1049C391.939 55.6299 392.457 56.1289 393.947 59.4569C396.018 64.0839 401.507 71.4759 402.872 71.4759C403.345 71.4759 402.761 69.3379 401.574 66.7259C398.473 59.8979 398.532 49.6229 401.712 43.1639C404.969 36.5489 412.933 29.0129 420.461 25.4199C431.425 20.1879 440.719 18.2889 455.578 18.2449C467.699 18.2099 469.236 18.4159 473.828 20.6879C479.751 23.6199 480.251 22.6759 476.594 15.4609C472.879 8.13189 469.87 7.02789 452.844 6.75089C441.121 6.55989 436.839 6.89489 430.483 8.49889ZM110.844 10.5959C107.819 11.0819 102.087 13.0769 98.1055 15.0269C84.6705 21.6089 68.8335 40.1929 61.5835 57.8809L58.3435 65.7869L58.0545 59.8809C57.8655 56.0069 58.6125 50.7199 60.2275 44.5089C62.4915 35.8019 62.5715 34.7579 61.2245 31.5089C59.8555 28.2069 52.7555 20.4759 51.0915 20.4759C50.6805 20.4759 50.3005 21.7129 50.2475 23.2259C50.1955 24.7389 49.1825 29.5349 47.9975 33.8859C43.8465 49.1289 45.3925 76.0899 52.0075 103.789L55.1565 116.976L57.9715 103.671C64.7575 71.6059 74.5245 50.6139 89.5455 35.8139C103.748 21.8199 123.108 18.0019 139.008 26.0589C144.211 28.6949 145.147 28.2419 144.207 23.5429C142.495 14.9819 125.227 8.28089 110.844 10.5959ZM350.432 13.5009C345.186 18.3369 344.881 19.0589 340.298 37.4759C335.329 57.4419 331.904 74.6069 331.169 83.2259C330.829 87.2129 330.303 90.4759 330.001 90.4759C329.699 90.4759 328.171 89.2469 326.603 87.7459L323.753 85.0149L325.32 88.7659C326.718 92.1139 326.729 93.1339 325.419 98.2469C321.947 111.803 321.08 131.004 323.746 135.318C324.705 136.869 326.073 134.941 331.1 124.959C336.127 114.977 337.761 108.638 338.9 94.6919C340.386 76.4969 349.968 33.0889 353.941 26.5549C357.8 20.2089 365.111 20.0119 371.82 26.0729C374.073 28.1089 375.939 29.1289 376.311 28.5279C377.455 26.6759 373.255 19.0569 368.952 15.1809C361.158 8.16089 356.667 7.75289 350.432 13.5009ZM482.503 31.7599C483.268 36.4779 481.387 42.3779 477.69 46.8549C474.4 50.8369 466.068 55.4489 462.129 55.4659C459.685 55.4769 457.826 58.1389 458.632 60.4759C458.916 61.3009 460.722 63.4719 462.645 65.2989C465.939 68.4299 466.436 68.5849 471.242 67.9769C486.465 66.0489 497.345 53.7669 493.929 42.3649C492.73 38.3649 487.11 31.2249 483.742 29.4219C482.172 28.5819 482.03 28.8499 482.503 31.7599ZM148.064 39.9439C146.035 47.5279 140.734 48.9679 129.611 44.9569C123.681 42.8179 121.378 43.3989 114.69 48.7179L109.344 52.9709L114.877 53.5679C117.92 53.8969 122.239 55.2189 124.476 56.5069C128.464 58.8019 128.614 58.8129 132.24 57.0919C136.175 55.2249 140.014 55.5259 145.044 58.0959C149.318 60.2799 153.448 59.8019 156.888 56.7259C159.4 54.4799 159.975 53.1799 160.023 49.6309C160.076 45.7469 159.571 44.7669 155.251 40.3809C152.593 37.6829 150.158 35.4759 149.839 35.4759C149.52 35.4759 148.721 37.4869 148.064 39.9439ZM448.19 36.5119C435.145 38.8399 424.237 45.7209 421.777 53.1749C418.149 64.1699 425.676 75.2699 439.982 80.0219C445.856 81.9729 447.844 81.4469 447.844 77.9419C447.844 73.5579 446.072 71.6669 439.836 69.3929C435.439 67.7899 433.844 66.7119 433.844 65.3449C433.844 62.5659 440.572 55.6469 445.901 52.9469C448.477 51.6419 450.813 49.6989 451.092 48.6309C451.443 47.2889 453.327 46.1869 457.186 45.0649C463.838 43.1309 468.951 39.2319 467.186 37.4379C465.662 35.8879 454.688 35.3529 448.19 36.5119ZM97.3765 73.7259C83.9665 101.116 76.9125 131.561 75.1925 169.464C74.8555 176.896 74.0015 184.403 73.2945 186.148C71.5215 190.529 67.7705 192.774 62.9885 192.318C59.2555 191.962 59.1595 192.028 60.4735 194.034C61.2245 195.181 64.1515 198 66.9765 200.298C72.8275 205.057 76.4655 205.614 81.5325 202.524C85.4645 200.126 86.8265 195.761 86.8485 185.476C86.8755 172.875 90.8915 139.862 93.4405 131.279C93.8485 129.907 94.6315 130.342 97.5345 133.555C99.5085 135.741 101.276 137.378 101.461 137.193C101.645 137.008 100.797 134.409 99.5755 131.416C97.5305 126.403 97.3565 124.366 97.3655 105.476C97.3765 81.9509 98.1215 78.7419 104.254 75.8179C107.181 74.4219 108.42 74.3319 111.605 75.2859C116.794 76.8409 123.057 82.4049 125.356 87.5029C127.205 91.6019 127.206 91.9009 125.405 100.338C123.238 110.489 122.04 132.476 123.653 132.476C124.234 132.476 124.998 131.565 125.352 130.451C125.705 129.337 127.584 126.882 129.527 124.995C134.864 119.812 138.021 110.257 137.233 101.674C136.169 90.0929 139.608 82.7499 148.22 78.2179C151.479 76.5019 154.265 76.0119 161.502 75.8779C166.538 75.7839 171.151 75.4039 171.752 75.0329C173.494 73.9559 173.022 71.0449 170.702 68.5539C165.161 62.6059 153.671 61.6879 144.251 66.4389L138.377 69.4019L135.61 66.7519L132.844 64.1019V67.2659C132.844 77.2859 111.838 74.4309 106.844 63.7329C106.019 61.9649 105.011 60.5099 104.604 60.4979C104.197 60.4859 100.944 66.4389 97.3765 73.7259ZM184.344 63.6709C180.815 65.6729 176.045 71.3379 174.857 74.9359C173.892 77.8609 173.984 78.9049 175.424 81.3419C177.525 84.8989 176.722 87.4759 173.51 87.4759C170.094 87.4759 166.187 90.9069 164.793 95.1289C163.462 99.1649 164.023 106.519 166.029 111.315L167.344 114.46L172.344 112.127C175.094 110.844 178.019 108.982 178.844 107.988C179.804 106.833 180.748 101.983 181.465 94.5279C182.72 81.4939 184.311 77.3529 188.78 75.5019C193.11 73.7089 197.852 74.9349 202.729 79.1099C205.045 81.0919 207.208 82.4449 207.536 82.1169C208.916 80.7369 204.449 72.3659 200.284 68.5269C193.894 62.6379 188.866 61.1059 184.344 63.6709ZM216.752 67.2259C212.33 71.4739 211.658 72.7059 210.379 78.8909C209.343 83.9079 209.242 86.3499 210.01 87.7869C211.173 89.9589 210.779 94.7869 208.445 106.976C206.859 115.263 206.512 128.118 207.758 132.476C208.401 134.728 208.693 134.39 210.705 129.062C214.337 119.445 216.983 106.734 217.857 94.7119C218.444 86.6419 219.211 82.5329 220.56 80.2219C224.766 73.0219 231.512 72.7909 239.23 79.5849C243.327 83.1909 243.844 83.4079 243.844 81.5209C243.844 76.2569 235.51 65.7869 229.529 63.5359C224.297 61.5659 221.931 62.2499 216.752 67.2259ZM483.909 66.0369C477.995 71.3789 477.191 73.4689 475.845 86.9879C474.27 102.796 467.35 124.153 458.065 141.861C452.343 152.772 443.422 157.464 433.849 154.596C430.339 153.544 430.021 153.137 429.639 149.217C428.731 139.897 433.226 127.046 440.267 118.831C444.65 113.718 453.869 107.476 457.04 107.476C464.051 107.476 465.968 100.853 460.594 95.1999C457.628 92.0799 452.909 88.8379 452.508 89.6449C450.897 92.8899 449.647 94.1189 447.24 94.8219C432.963 98.9899 421.618 111.78 418.363 127.379C414.211 147.275 429.868 169.945 445.707 166.974C458.49 164.576 465.039 155.543 476.88 123.976C481.451 111.793 482.316 108.289 483.547 96.9759C484.35 89.5989 485.692 82.4679 486.652 80.4899C490.163 73.2529 497.115 72.7469 505.466 79.1219L510.135 82.6859L509.468 79.3469C507.916 71.5879 499.735 63.8079 492.044 62.7759C488.534 62.3049 487.643 62.6629 483.909 66.0369ZM296.194 66.9229C292.724 70.1959 292.401 70.2989 289.797 68.9519C285.551 66.7559 279.691 66.1709 274.892 67.4629C269.248 68.9829 260.457 77.2759 255.899 85.3779L252.515 91.3939L249.145 88.4349C247.291 86.8079 245.588 85.4759 245.36 85.4759C245.132 85.4759 245.575 86.9799 246.343 88.8189C247.538 91.6789 247.538 93.0259 246.347 98.1319C243.416 110.697 242.595 127.223 244.449 136.314C244.813 138.095 245.235 138.396 246.221 137.578C248.668 135.547 254.789 120.964 257.362 111.033C261.946 93.3399 269.729 81.9299 278.9 79.4609C283.879 78.1199 290.11 78.9549 294.651 81.5709C296.47 82.6189 298.103 83.4759 298.28 83.4759C298.457 83.4759 299.167 82.1089 299.859 80.4379C301.405 76.7059 303.561 75.4759 308.556 75.4759C312.501 75.4759 315.284 76.8849 320.094 81.3159L322.844 83.8499V81.3589C322.844 77.7419 317.598 70.0349 312.742 66.5169C306.675 62.1219 301.14 62.2579 296.194 66.9229ZM517.753 67.3319C514.106 70.7669 513.581 71.8579 512.938 77.3129C512.54 80.6819 511.945 83.7079 511.615 84.0379C511.285 84.3689 511.668 86.2069 512.469 88.1219C513.776 91.2519 513.725 92.5369 511.961 100.791C509.156 113.914 508.512 120.562 509.318 128.09C510.087 135.269 510.684 135.33 513.099 128.476C517.684 115.459 520.842 100.127 520.843 90.8749C520.844 79.6949 523.09 75.4759 529.042 75.4759C531.755 75.4759 538.353 78.7759 541.589 81.7519C544.386 84.3239 545.268 83.5469 544.456 79.2229C543.324 73.1849 531.087 63.4759 524.611 63.4759C522.779 63.4759 520.467 64.7759 517.753 67.3319ZM631.849 65.2199C623.231 68.2609 613.844 80.1189 613.844 87.9639C613.844 89.3369 613.545 89.4729 612.477 88.5859C611.337 87.6399 611.182 88.5749 611.549 94.2139C611.918 99.8809 611.614 101.703 609.667 105.468C606.899 110.821 599.334 116.799 593.13 118.536L588.718 119.771L589.351 123.874C591.031 134.762 594.413 139.132 600.409 138.159C605.398 137.349 608.748 134.949 610.398 131.002C611.16 129.176 613.531 126.174 615.666 124.329C618.283 122.068 620.256 119.069 621.721 115.122C623.642 109.945 623.769 108.584 622.823 103.368C619.625 85.7319 629.804 74.9819 649.041 75.6769C658.122 76.0039 659.726 75.1049 657.695 70.8239C654.621 64.3479 642.047 61.6219 631.849 65.2199ZM582.13 66.9269C572.219 70.0239 562.292 78.7119 557.214 88.7329L554.757 93.5809L551.55 90.8779L548.344 88.1749L547.697 101.576C547.023 115.528 544.319 143.731 543.245 148.009C542.477 151.07 543.595 151.118 547.909 148.211C555.318 143.218 560.844 130.031 560.844 117.343C560.844 100.828 567.895 87.6039 579.901 81.6049C590.089 76.5139 597.413 76.3379 604.31 81.0179L607.844 83.4159V80.8959C607.844 75.5889 603.106 69.7369 596.612 67.0239C592.185 65.1739 587.832 65.1449 582.13 66.9269ZM408.776 84.6409C406.477 86.3059 401.789 90.5169 398.359 93.9979C392.822 99.6179 392.046 100.899 391.448 105.406C390.677 111.215 384.802 128.672 381.346 135.423C380.065 137.927 377.29 141.637 375.18 143.666C369.095 149.52 363.475 150.888 357.727 147.915C354.781 146.392 354.734 146.404 355.815 148.423C357.271 151.145 366.446 158.384 370.721 160.186C374.875 161.936 380.764 161.113 384.367 158.279C385.787 157.162 387.065 156.412 387.208 156.612C392.797 164.461 395.08 167.372 396.915 168.994C399.008 170.844 398.98 170.67 396.505 166.396C384.848 146.269 388.028 120.685 404.234 104.218C409.862 98.4989 418.312 92.5139 424.083 90.1599L427.242 88.8709L420.098 85.2419L412.954 81.6129L408.776 84.6409ZM128.527 86.6639C128.208 87.4609 127.971 87.2239 127.923 86.0589C127.88 85.0049 128.116 84.4149 128.448 84.7469C128.78 85.0789 128.816 85.9419 128.527 86.6639ZM661.929 85.8739C661.307 86.6219 659.446 87.5059 657.791 87.8369C649.572 89.4799 646.744 99.8119 651.438 111.046L652.809 114.329L656.893 112.725C659.202 111.818 661.562 110.003 662.325 108.548C664.129 105.106 669.795 99.8619 672.635 99.0059C674.376 98.4809 674.773 97.8299 674.286 96.2959C673.933 95.1849 673.534 93.2659 673.398 92.0309C673.033 88.7039 671.985 87.4759 669.507 87.4759C668.287 87.4759 666.337 86.8089 665.174 85.9939C663.396 84.7489 662.878 84.7299 661.929 85.8739ZM596.945 97.0129C594.094 100.261 590.844 106.445 590.844 108.624C590.844 110.314 596.73 106.492 599.284 103.144C602.483 98.9489 603.779 93.4759 601.573 93.4759C600.736 93.4759 598.654 95.0679 596.945 97.0129ZM291.613 96.2259C286.049 102.544 281.448 117.478 282.009 127.401C282.543 136.866 283.977 138.163 288.354 133.145C293.993 126.679 296.619 118.529 296.622 107.476C296.624 98.4989 295.801 94.4759 293.964 94.4759C293.518 94.4759 292.461 95.2629 291.613 96.2259ZM676.464 110.226C674.092 114.785 670.043 117.863 663.526 120.062L657.344 122.148L657.682 128.252C658.588 144.588 649.2 155.068 632.591 156.26C624.13 156.868 618.3 154.83 613.594 149.621L610.216 145.883L605.281 148.221C595.325 152.935 580.828 149.513 571.58 140.265L567.21 135.895L565.372 141.645C563.644 147.051 558.565 154.709 557.036 154.213C556.655 154.09 554.769 154.957 552.844 156.141C550.919 157.324 547.544 158.773 545.344 159.359C541.578 160.364 541.245 160.764 539.65 166.217C536.58 176.715 530.471 183.501 521.43 186.459C515.687 188.337 505.055 187.19 498.719 184.007C495.885 182.584 493.384 181.602 493.161 181.825C492.938 182.047 495.564 184.77 498.995 187.874C507.761 195.808 514.452 198.884 523.893 199.32C532.139 199.702 536.348 198.481 542.214 194.006C545.834 191.245 551.186 182.07 552.33 176.662C552.82 174.345 553.829 173.041 555.688 172.327C566.083 168.331 572.637 162.768 576.896 154.325C578.103 151.933 579.248 149.8 579.44 149.586C579.633 149.371 581.662 150.885 583.948 152.951C593.222 161.329 606.497 164.515 616.406 160.74L621.466 158.811L625.406 162.227C630.804 166.909 635.014 168.475 642.216 168.481C650.037 168.487 656.983 165.985 662.411 161.207C667.857 156.414 670.147 150.04 669.679 140.978C669.349 134.599 669.387 134.489 672.344 133.311C677.604 131.215 683.834 126.451 686.279 122.656C690.272 116.457 690.298 115.101 686.508 111.083C682.244 106.562 678.535 106.245 676.464 110.226ZM176.344 120.499L172.344 122.36L172.2 130.384C171.964 143.533 167.508 150.136 155.892 154.55C146.457 158.135 135.666 156.748 129.656 151.177C127.416 149.102 126.281 148.785 122.582 149.202C119.641 149.534 117.139 149.163 115.059 148.087C109.993 145.468 110.116 146.176 115.709 151.839C122.665 158.882 128.624 161.874 134.402 161.222C137.799 160.839 139.135 161.14 140.436 162.578C145.698 168.392 158.261 170.209 167.892 166.55C178.837 162.391 183.382 156.229 184.524 144.002C184.859 140.413 185.502 137.476 185.953 137.476C186.404 137.476 185.904 135.449 184.842 132.972C183.781 130.495 182.614 126.22 182.249 123.472C181.885 120.724 181.307 118.512 180.965 118.557C180.624 118.601 178.544 119.475 176.344 120.499ZM141.232 129.997C138.33 132.899 138.379 136.109 141.353 138.074C144.029 139.841 148.211 137.857 148.677 134.599C149.662 127.71 145.866 125.363 141.232 129.997ZM626.424 129.592C623.092 132.213 623.215 136.37 626.677 138.087C631.666 140.561 635.416 137.044 634.275 130.962C633.49 126.775 630.638 126.277 626.424 129.592ZM339.083 133.265C334.931 143.067 327.081 150.476 320.85 150.476C315.734 150.476 304.299 142.129 301.085 136.048C300.162 134.303 299.872 134.5 298.014 138.143C295.536 143.001 289.813 148.227 286.076 149.045C284.573 149.374 282.766 149.822 282.059 150.041C281.353 150.261 278.488 149.95 275.693 149.35C269.966 148.122 263.849 143.315 261.84 138.465C261.159 136.821 260.318 135.476 259.971 135.476C259.624 135.476 258.266 137.502 256.953 139.977C255.639 142.453 252.612 146.278 250.227 148.477C246.575 151.844 245.213 152.475 241.616 152.472C234.909 152.466 226.513 146.577 222.732 139.226C221.671 137.164 220.63 135.476 220.419 135.476C220.207 135.476 218.867 137.468 217.44 139.903C212.365 148.561 205.854 151.247 198.822 147.581C194.998 145.588 194.827 145.576 195.788 147.371C197.399 150.382 205.602 157.18 210.465 159.534C216.974 162.686 221.095 161.64 227.055 155.324L231.766 150.332L236.555 154.972C249.669 167.679 258.603 167.732 267.266 155.154L270.915 149.854L276.13 154.687C287.476 165.203 299.504 164.5 308.427 152.8L311.595 148.647L315.814 152.946C320.412 157.63 329.001 162.476 332.707 162.476C338.48 162.476 345.955 156.174 350.277 147.664C351.951 144.368 351.944 144.336 348.891 141.213C347.204 139.487 344.755 135.933 343.451 133.314L341.078 128.554L339.083 133.265ZM483.945 143.467C478.309 160.116 469.151 174.198 460.344 179.755C448.136 187.457 427.371 189.118 415.19 183.367C412.524 182.108 409.894 180.885 409.344 180.649C407.328 179.785 415.485 187.74 420.125 191.164C427.682 196.74 433.744 198.597 444.257 198.556C463.062 198.482 476.29 191.933 485.247 178.262C486.939 175.681 486.922 175.5 484.669 172.453C482.966 170.15 482.344 167.973 482.344 164.315C482.344 159.843 482.726 158.972 486.014 155.959C489.533 152.734 492.612 151.525 501.344 149.939L505.344 149.212L501.861 147.746C496.468 145.476 493.286 142.86 490.135 138.103L487.241 133.733L483.945 143.467ZM512.344 146.95L508.344 149.414L512.594 149.445C516.469 149.473 516.844 149.255 516.844 146.976C516.844 145.601 516.732 144.478 516.594 144.481C516.456 144.484 514.544 145.595 512.344 146.95ZM498.898 159.567C496.453 160.046 493.842 161.049 493.096 161.794C491.955 162.936 492.382 163.73 495.794 166.813C500.769 171.307 506.222 171.867 509.552 168.226C512.225 165.302 514.939 159.904 514.137 159.103C513.272 158.238 504.28 158.512 498.898 159.567Z" fill="black"/>
<path fill-rule="evenodd" clip-rule="evenodd" d="M27.1145 0.594889C21.1465 1.99289 12.7215 9.93889 8.86751 17.8039C-4.41049 44.9069 10.7815 122.075 38.6285 168.976C43.0415 176.408 47.6965 182.476 48.9845 182.476C49.5195 182.476 48.7655 180.564 47.3105 178.226C43.0725 171.421 32.4165 148.806 28.5805 138.476C23.7445 125.452 18.4155 105.72 15.2125 88.9759C12.9475 77.1379 12.5195 72.1189 12.4385 56.4759C12.3525 39.7739 12.5685 37.2609 14.6555 30.6159C19.0805 16.5299 31.5825 8.38489 42.4415 12.5129C44.1245 13.1529 45.5255 13.1939 46.1005 12.6189C47.3875 11.3319 43.5455 2.92189 41.0625 1.59289C37.9975 -0.0471121 31.7615 -0.493111 27.1145 0.594889ZM430.483 8.49889C419.596 11.2469 410.026 16.5389 402.725 23.8499C396.778 29.8039 390.846 39.7929 390.845 43.8569C390.844 45.1669 389.6 44.1749 386.745 40.5889C384.49 37.7569 381.822 34.9989 380.815 34.4609C379.155 33.5719 379.067 33.7659 379.867 36.5559C380.563 38.9819 379.614 44.0979 375.372 60.8029C366.795 94.5789 366.401 96.9789 366.371 115.476C366.342 133.395 366.853 136.544 369.44 134.396C372.056 132.225 377.673 120.091 380.367 110.796C381.763 105.98 383.755 101.125 384.794 100.008C385.832 98.8899 386.986 96.3309 387.357 94.3199C387.909 91.3269 387.628 90.2609 385.811 88.4439L383.592 86.2249L387.275 72.6009C389.301 65.1069 391.205 58.1339 391.507 57.1049C391.939 55.6299 392.457 56.1289 393.947 59.4569C396.018 64.0839 401.507 71.4759 402.872 71.4759C403.345 71.4759 402.761 69.3379 401.574 66.7259C398.473 59.8979 398.532 49.6229 401.712 43.1639C404.969 36.5489 412.933 29.0129 420.461 25.4199C431.425 20.1879 440.719 18.2889 455.578 18.2449C467.699 18.2099 469.236 18.4159 473.828 20.6879C479.751 23.6199 480.251 22.6759 476.594 15.4609C472.879 8.13189 469.87 7.02789 452.844 6.75089C441.121 6.55989 436.839 6.89489 430.483 8.49889ZM110.844 10.5959C107.819 11.0819 102.087 13.0769 98.1055 15.0269C84.6705 21.6089 68.8335 40.1929 61.5835 57.8809L58.3435 65.7869L58.0545 59.8809C57.8655 56.0069 58.6125 50.7199 60.2275 44.5089C62.4915 35.8019 62.5715 34.7579 61.2245 31.5089C59.8555 28.2069 52.7555 20.4759 51.0915 20.4759C50.6805 20.4759 50.3005 21.7129 50.2475 23.2259C50.1955 24.7389 49.1825 29.5349 47.9975 33.8859C43.8465 49.1289 45.3925 76.0899 52.0075 103.789L55.1565 116.976L57.9715 103.671C64.7575 71.6059 74.5245 50.6139 89.5455 35.8139C103.748 21.8199 123.108 18.0019 139.008 26.0589C144.211 28.6949 145.147 28.2419 144.207 23.5429C142.495 14.9819 125.227 8.28089 110.844 10.5959ZM350.432 13.5009C345.186 18.3369 344.881 19.0589 340.298 37.4759C335.329 57.4419 331.904 74.6069 331.169 83.2259C330.829 87.2129 330.303 90.4759 330.001 90.4759C329.699 90.4759 328.171 89.2469 326.603 87.7459L323.753 85.0149L325.32 88.7659C326.718 92.1139 326.729 93.1339 325.419 98.2469C321.947 111.803 321.08 131.004 323.746 135.318C324.705 136.869 326.073 134.941 331.1 124.959C336.127 114.977 337.761 108.638 338.9 94.6919C340.386 76.4969 349.968 33.0889 353.941 26.5549C357.8 20.2089 365.111 20.0119 371.82 26.0729C374.073 28.1089 375.939 29.1289 376.311 28.5279C377.455 26.6759 373.255 19.0569 368.952 15.1809C361.158 8.16089 356.667 7.75289 350.432 13.5009ZM482.503 31.7599C483.268 36.4779 481.387 42.3779 477.69 46.8549C474.4 50.8369 466.068 55.4489 462.129 55.4659C459.685 55.4769 457.826 58.1389 458.632 60.4759C458.916 61.3009 460.722 63.4719 462.645 65.2989C465.939 68.4299 466.436 68.5849 471.242 67.9769C486.465 66.0489 497.345 53.7669 493.929 42.3649C492.73 38.3649 487.11 31.2249 483.742 29.4219C482.172 28.5819 482.03 28.8499 482.503 31.7599ZM148.064 39.9439C146.035 47.5279 140.734 48.9679 129.611 44.9569C123.681 42.8179 121.378 43.3989 114.69 48.7179L109.344 52.9709L114.877 53.5679C117.92 53.8969 122.239 55.2189 124.476 56.5069C128.464 58.8019 128.614 58.8129 132.24 57.0919C136.175 55.2249 140.014 55.5259 145.044 58.0959C149.318 60.2799 153.448 59.8019 156.888 56.7259C159.4 54.4799 159.975 53.1799 160.023 49.6309C160.076 45.7469 159.571 44.7669 155.251 40.3809C152.593 37.6829 150.158 35.4759 149.839 35.4759C149.52 35.4759 148.721 37.4869 148.064 39.9439ZM448.19 36.5119C435.145 38.8399 424.237 45.7209 421.777 53.1749C418.149 64.1699 425.676 75.2699 439.982 80.0219C445.856 81.9729 447.844 81.4469 447.844 77.9419C447.844 73.5579 446.072 71.6669 439.836 69.3929C435.439 67.7899 433.844 66.7119 433.844 65.3449C433.844 62.5659 440.572 55.6469 445.901 52.9469C448.477 51.6419 450.813 49.6989 451.092 48.6309C451.443 47.2889 453.327 46.1869 457.186 45.0649C463.838 43.1309 468.951 39.2319 467.186 37.4379C465.662 35.8879 454.688 35.3529 448.19 36.5119ZM97.3765 73.7259C83.9665 101.116 76.9125 131.561 75.1925 169.464C74.8555 176.896 74.0015 184.403 73.2945 186.148C71.5215 190.529 67.7705 192.774 62.9885 192.318C59.2555 191.962 59.1595 192.028 60.4735 194.034C61.2245 195.181 64.1515 198 66.9765 200.298C72.8275 205.057 76.4655 205.614 81.5325 202.524C85.4645 200.126 86.8265 195.761 86.8485 185.476C86.8755 172.875 90.8915 139.862 93.4405 131.279C93.8485 129.907 94.6315 130.342 97.5345 133.555C99.5085 135.741 101.276 137.378 101.461 137.193C101.645 137.008 100.797 134.409 99.5755 131.416C97.5305 126.403 97.3565 124.366 97.3655 105.476C97.3765 81.9509 98.1215 78.7419 104.254 75.8179C107.181 74.4219 108.42 74.3319 111.605 75.2859C116.794 76.8409 123.057 82.4049 125.356 87.5029C127.205 91.6019 127.206 91.9009 125.405 100.338C123.238 110.489 122.04 132.476 123.653 132.476C124.234 132.476 124.998 131.565 125.352 130.451C125.705 129.337 127.584 126.882 129.527 124.995C134.864 119.812 138.021 110.257 137.233 101.674C136.169 90.0929 139.608 82.7499 148.22 78.2179C151.479 76.5019 154.265 76.0119 161.502 75.8779C166.538 75.7839 171.151 75.4039 171.752 75.0329C173.494 73.9559 173.022 71.0449 170.702 68.5539C165.161 62.6059 153.671 61.6879 144.251 66.4389L138.377 69.4019L135.61 66.7519L132.844 64.1019V67.2659C132.844 77.2859 111.838 74.4309 106.844 63.7329C106.019 61.9649 105.011 60.5099 104.604 60.4979C104.197 60.4859 100.944 66.4389 97.3765 73.7259ZM184.344 63.6709C180.815 65.6729 176.045 71.3379 174.857 74.9359C173.892 77.8609 173.984 78.9049 175.424 81.3419C177.525 84.8989 176.722 87.4759 173.51 87.4759C170.094 87.4759 166.187 90.9069 164.793 95.1289C163.462 99.1649 164.023 106.519 166.029 111.315L167.344 114.46L172.344 112.127C175.094 110.844 178.019 108.982 178.844 107.988C179.804 106.833 180.748 101.983 181.465 94.5279C182.72 81.4939 184.311 77.3529 188.78 75.5019C193.11 73.7089 197.852 74.9349 202.729 79.1099C205.045 81.0919 207.208 82.4449 207.536 82.1169C208.916 80.7369 204.449 72.3659 200.284 68.5269C193.894 62.6379 188.866 61.1059 184.344 63.6709ZM216.752 67.2259C212.33 71.4739 211.658 72.7059 210.379 78.8909C209.343 83.9079 209.242 86.3499 210.01 87.7869C211.173 89.9589 210.779 94.7869 208.445 106.976C206.859 115.263 206.512 128.118 207.758 132.476C208.401 134.728 208.693 134.39 210.705 129.062C214.337 119.445 216.983 106.734 217.857 94.7119C218.444 86.6419 219.211 82.5329 220.56 80.2219C224.766 73.0219 231.512 72.7909 239.23 79.5849C243.327 83.1909 243.844 83.4079 243.844 81.5209C243.844 76.2569 235.51 65.7869 229.529 63.5359C224.297 61.5659 221.931 62.2499 216.752 67.2259ZM483.909 66.0369C477.995 71.3789 477.191 73.4689 475.845 86.9879C474.27 102.796 467.35 124.153 458.065 141.861C452.343 152.772 443.422 157.464 433.849 154.596C430.339 153.544 430.021 153.137 429.639 149.217C428.731 139.897 433.226 127.046 440.267 118.831C444.65 113.718 453.869 107.476 457.04 107.476C464.051 107.476 465.968 100.853 460.594 95.1999C457.628 92.0799 452.909 88.8379 452.508 89.6449C450.897 92.8899 449.647 94.1189 447.24 94.8219C432.963 98.9899 421.618 111.78 418.363 127.379C414.211 147.275 429.868 169.945 445.707 166.974C458.49 164.576 465.039 155.543 476.88 123.976C481.451 111.793 482.316 108.289 483.547 96.9759C484.35 89.5989 485.692 82.4679 486.652 80.4899C490.163 73.2529 497.115 72.7469 505.466 79.1219L510.135 82.6859L509.468 79.3469C507.916 71.5879 499.735 63.8079 492.044 62.7759C488.534 62.3049 487.643 62.6629 483.909 66.0369ZM296.194 66.9229C292.724 70.1959 292.401 70.2989 289.797 68.9519C285.551 66.7559 279.691 66.1709 274.892 67.4629C269.248 68.9829 260.457 77.2759 255.899 85.3779L252.515 91.3939L249.145 88.4349C247.291 86.8079 245.588 85.4759 245.36 85.4759C245.132 85.4759 245.575 86.9799 246.343 88.8189C247.538 91.6789 247.538 93.0259 246.347 98.1319C243.416 110.697 242.595 127.223 244.449 136.314C244.813 138.095 245.235 138.396 246.221 137.578C248.668 135.547 254.789 120.964 257.362 111.033C261.946 93.3399 269.729 81.9299 278.9 79.4609C283.879 78.1199 290.11 78.9549 294.651 81.5709C296.47 82.6189 298.103 83.4759 298.28 83.4759C298.457 83.4759 299.167 82.1089 299.859 80.4379C301.405 76.7059 303.561 75.4759 308.556 75.4759C312.501 75.4759 315.284 76.8849 320.094 81.3159L322.844 83.8499V81.3589C322.844 77.7419 317.598 70.0349 312.742 66.5169C306.675 62.1219 301.14 62.2579 296.194 66.9229ZM517.753 67.3319C514.106 70.7669 513.581 71.8579 512.938 77.3129C512.54 80.6819 511.945 83.7079 511.615 84.0379C511.285 84.3689 511.668 86.2069 512.469 88.1219C513.776 91.2519 513.725 92.5369 511.961 100.791C509.156 113.914 508.512 120.562 509.318 128.09C510.087 135.269 510.684 135.33 513.099 128.476C517.684 115.459 520.842 100.127 520.843 90.8749C520.844 79.6949 523.09 75.4759 529.042 75.4759C531.755 75.4759 538.353 78.7759 541.589 81.7519C544.386 84.3239 545.268 83.5469 544.456 79.2229C543.324 73.1849 531.087 63.4759 524.611 63.4759C522.779 63.4759 520.467 64.7759 517.753 67.3319ZM631.849 65.2199C623.231 68.2609 613.844 80.1189 613.844 87.9639C613.844 89.3369 613.545 89.4729 612.477 88.5859C611.337 87.6399 611.182 88.5749 611.549 94.2139C611.918 99.8809 611.614 101.703 609.667 105.468C606.899 110.821 599.334 116.799 593.13 118.536L588.718 119.771L589.351 123.874C591.031 134.762 594.413 139.132 600.409 138.159C605.398 137.349 608.748 134.949 610.398 131.002C611.16 129.176 613.531 126.174 615.666 124.329C618.283 122.068 620.256 119.069 621.721 115.122C623.642 109.945 623.769 108.584 622.823 103.368C619.625 85.7319 629.804 74.9819 649.041 75.6769C658.122 76.0039 659.726 75.1049 657.695 70.8239C654.621 64.3479 642.047 61.6219 631.849 65.2199ZM582.13 66.9269C572.219 70.0239 562.292 78.7119 557.214 88.7329L554.757 93.5809L551.55 90.8779L548.344 88.1749L547.697 101.576C547.023 115.528 544.319 143.731 543.245 148.009C542.477 151.07 543.595 151.118 547.909 148.211C555.318 143.218 560.844 130.031 560.844 117.343C560.844 100.828 567.895 87.6039 579.901 81.6049C590.089 76.5139 597.413 76.3379 604.31 81.0179L607.844 83.4159V80.8959C607.844 75.5889 603.106 69.7369 596.612 67.0239C592.185 65.1739 587.832 65.1449 582.13 66.9269ZM408.776 84.6409C406.477 86.3059 401.789 90.5169 398.359 93.9979C392.822 99.6179 392.046 100.899 391.448 105.406C390.677 111.215 384.802 128.672 381.346 135.423C380.065 137.927 377.29 141.637 375.18 143.666C369.095 149.52 363.475 150.888 357.727 147.915C354.781 146.392 354.734 146.404 355.815 148.423C357.271 151.145 366.446 158.384 370.721 160.186C374.875 161.936 380.764 161.113 384.367 158.279C385.787 157.162 387.065 156.412 387.208 156.612C392.797 164.461 395.08 167.372 396.915 168.994C399.008 170.844 398.98 170.67 396.505 166.396C384.848 146.269 388.028 120.685 404.234 104.218C409.862 98.4989 418.312 92.5139 424.083 90.1599L427.242 88.8709L420.098 85.2419L412.954 81.6129L408.776 84.6409ZM128.527 86.6639C128.208 87.4609 127.971 87.2239 127.923 86.0589C127.88 85.0049 128.116 84.4149 128.448 84.7469C128.78 85.0789 128.816 85.9419 128.527 86.6639ZM661.929 85.8739C661.307 86.6219 659.446 87.5059 657.791 87.8369C649.572 89.4799 646.744 99.8119 651.438 111.046L652.809 114.329L656.893 112.725C659.202 111.818 661.562 110.003 662.325 108.548C664.129 105.106 669.795 99.8619 672.635 99.0059C674.376 98.4809 674.773 97.8299 674.286 96.2959C673.933 95.1849 673.534 93.2659 673.398 92.0309C673.033 88.7039 671.985 87.4759 669.507 87.4759C668.287 87.4759 666.337 86.8089 665.174 85.9939C663.396 84.7489 662.878 84.7299 661.929 85.8739ZM596.945 97.0129C594.094 100.261 590.844 106.445 590.844 108.624C590.844 110.314 596.73 106.492 599.284 103.144C602.483 98.9489 603.779 93.4759 601.573 93.4759C600.736 93.4759 598.654 95.0679 596.945 97.0129ZM291.613 96.2259C286.049 102.544 281.448 117.478 282.009 127.401C282.543 136.866 283.977 138.163 288.354 133.145C293.993 126.679 296.619 118.529 296.622 107.476C296.624 98.4989 295.801 94.4759 293.964 94.4759C293.518 94.4759 292.461 95.2629 291.613 96.2259ZM676.464 110.226C674.092 114.785 670.043 117.863 663.526 120.062L657.344 122.148L657.682 128.252C658.588 144.588 649.2 155.068 632.591 156.26C624.13 156.868 618.3 154.83 613.594 149.621L610.216 145.883L605.281 148.221C595.325 152.935 580.828 149.513 571.58 140.265L567.21 135.895L565.372 141.645C563.644 147.051 558.565 154.709 557.036 154.213C556.655 154.09 554.769 154.957 552.844 156.141C550.919 157.324 547.544 158.773 545.344 159.359C541.578 160.364 541.245 160.764 539.65 166.217C536.58 176.715 530.471 183.501 521.43 186.459C515.687 188.337 505.055 187.19 498.719 184.007C495.885 182.584 493.384 181.602 493.161 181.825C492.938 182.047 495.564 184.77 498.995 187.874C507.761 195.808 514.452 198.884 523.893 199.32C532.139 199.702 536.348 198.481 542.214 194.006C545.834 191.245 551.186 182.07 552.33 176.662C552.82 174.345 553.829 173.041 555.688 172.327C566.083 168.331 572.637 162.768 576.896 154.325C578.103 151.933 579.248 149.8 579.44 149.586C579.633 149.371 581.662 150.885 583.948 152.951C593.222 161.329 606.497 164.515 616.406 160.74L621.466 158.811L625.406 162.227C630.804 166.909 635.014 168.475 642.216 168.481C650.037 168.487 656.983 165.985 662.411 161.207C667.857 156.414 670.147 150.04 669.679 140.978C669.349 134.599 669.387 134.489 672.344 133.311C677.604 131.215 683.834 126.451 686.279 122.656C690.272 116.457 690.298 115.101 686.508 111.083C682.244 106.562 678.535 106.245 676.464 110.226ZM176.344 120.499L172.344 122.36L172.2 130.384C171.964 143.533 167.508 150.136 155.892 154.55C146.457 158.135 135.666 156.748 129.656 151.177C127.416 149.102 126.281 148.785 122.582 149.202C119.641 149.534 117.139 149.163 115.059 148.087C109.993 145.468 110.116 146.176 115.709 151.839C122.665 158.882 128.624 161.874 134.402 161.222C137.799 160.839 139.135 161.14 140.436 162.578C145.698 168.392 158.261 170.209 167.892 166.55C178.837 162.391 183.382 156.229 184.524 144.002C184.859 140.413 185.502 137.476 185.953 137.476C186.404 137.476 185.904 135.449 184.842 132.972C183.781 130.495 182.614 126.22 182.249 123.472C181.885 120.724 181.307 118.512 180.965 118.557C180.624 118.601 178.544 119.475 176.344 120.499ZM141.232 129.997C138.33 132.899 138.379 136.109 141.353 138.074C144.029 139.841 148.211 137.857 148.677 134.599C149.662 127.71 145.866 125.363 141.232 129.997ZM626.424 129.592C623.092 132.213 623.215 136.37 626.677 138.087C631.666 140.561 635.416 137.044 634.275 130.962C633.49 126.775 630.638 126.277 626.424 129.592ZM339.083 133.265C334.931 143.067 327.081 150.476 320.85 150.476C315.734 150.476 304.299 142.129 301.085 136.048C300.162 134.303 299.872 134.5 298.014 138.143C295.536 143.001 289.813 148.227 286.076 149.045C284.573 149.374 282.766 149.822 282.059 150.041C281.353 150.261 278.488 149.95 275.693 149.35C269.966 148.122 263.849 143.315 261.84 138.465C261.159 136.821 260.318 135.476 259.971 135.476C259.624 135.476 258.266 137.502 256.953 139.977C255.639 142.453 252.612 146.278 250.227 148.477C246.575 151.844 245.213 152.475 241.616 152.472C234.909 152.466 226.513 146.577 222.732 139.226C221.671 137.164 220.63 135.476 220.419 135.476C220.207 135.476 218.867 137.468 217.44 139.903C212.365 148.561 205.854 151.247 198.822 147.581C194.998 145.588 194.827 145.576 195.788 147.371C197.399 150.382 205.602 157.18 210.465 159.534C216.974 162.686 221.095 161.64 227.055 155.324L231.766 150.332L236.555 154.972C249.669 167.679 258.603 167.732 267.266 155.154L270.915 149.854L276.13 154.687C287.476 165.203 299.504 164.5 308.427 152.8L311.595 148.647L315.814 152.946C320.412 157.63 329.001 162.476 332.707 162.476C338.48 162.476 345.955 156.174 350.277 147.664C351.951 144.368 351.944 144.336 348.891 141.213C347.204 139.487 344.755 135.933 343.451 133.314L341.078 128.554L339.083 133.265ZM483.945 143.467C478.309 160.116 469.151 174.198 460.344 179.755C448.136 187.457 427.371 189.118 415.19 183.367C412.524 182.108 409.894 180.885 409.344 180.649C407.328 179.785 415.485 187.74 420.125 191.164C427.682 196.74 433.744 198.597 444.257 198.556C463.062 198.482 476.29 191.933 485.247 178.262C486.939 175.681 486.922 175.5 484.669 172.453C482.966 170.15 482.344 167.973 482.344 164.315C482.344 159.843 482.726 158.972 486.014 155.959C489.533 152.734 492.612 151.525 501.344 149.939L505.344 149.212L501.861 147.746C496.468 145.476 493.286 142.86 490.135 138.103L487.241 133.733L483.945 143.467ZM512.344 146.95L508.344 149.414L512.594 149.445C516.469 149.473 516.844 149.255 516.844 146.976C516.844 145.601 516.732 144.478 516.594 144.481C516.456 144.484 514.544 145.595 512.344 146.95ZM498.898 159.567C496.453 160.046 493.842 161.049 493.096 161.794C491.955 162.936 492.382 163.73 495.794 166.813C500.769 171.307 506.222 171.867 509.552 168.226C512.225 165.302 514.939 159.904 514.137 159.103C513.272 158.238 504.28 158.512 498.898 159.567Z" fill="url(#paint0_linear_76_7)"/>
</g>
<defs>
<filter id="filter0_di_76_7" x="0" y="0" width="693.313" height="212.447" filterUnits="userSpaceOnUse" color-interpolation-filters="sRGB">
<feFlood flood-opacity="0" result="BackgroundImageFix"/>
<feColorMatrix in="SourceAlpha" type="matrix" values="0 0 0 0 0 0 0 0 0 0 0 0 0 0 0 0 0 0 127 0" result="hardAlpha"/>
<feOffset dy="4"/>
<feGaussianBlur stdDeviation="2"/>
<feComposite in2="hardAlpha" operator="out"/>
<feColorMatrix type="matrix" values="0 0 0 0 0 0 0 0 0 0 0 0 0 0 0 0 0 0 0.25 0"/>
<feBlend mode="normal" in2="BackgroundImageFix" result="effect1_dropShadow_76_7"/>
<feBlend mode="normal" in="SourceGraphic" in2="effect1_dropShadow_76_7" result="shape"/>
<feColorMatrix in="SourceAlpha" type="matrix" values="0 0 0 0 0 0 0 0 0 0 0 0 0 0 0 0 0 0 127 0" result="hardAlpha"/>
<feOffset dx="5" dy="4"/>
<feGaussianBlur stdDeviation="2"/>
<feComposite in2="hardAlpha" operator="arithmetic" k2="-1" k3="1"/>
<feColorMatrix type="matrix" values="0 0 0 0 0 0 0 0 0 0 0 0 0 0 0 0 0 0 0.25 0"/>
<feBlend mode="normal" in2="shape" result="effect2_innerShadow_76_7"/>
</filter>
<linearGradient id="paint0_linear_76_7" x1="678.5" y1="102" x2="4" y2="102" gradientUnits="userSpaceOnUse">
<stop offset="0.0663635" stop-color="#FF9900"/>
<stop offset="0.265625" stop-color="#2ED15C"/>
<stop offset="0.489583" stop-color="#2C98C6"/>
<stop offset="0.749412" stop-color="#B929A2"/>
<stop offset="1" stop-color="#FF0000"/>
</linearGradient>
</defs>
</svg>
